<svg id="Слой_1" data-name="Слой 1" xmlns="http://www.w3.org/2000/svg" viewBox="0 0 387.02 432.11"><defs><style>.cls-1{fill:#36c0ef;}.cls-2{fill:#fff;}.cls-3{fill:#37bfef;}.cls-4{fill:#39beef;}</style></defs><path class="cls-1" d="M27.71,216V125.8A38.63,38.63,0,0,1,47.18,92.26L199.88,5.08A38.62,38.62,0,0,1,238.07,5L395.14,94a38.63,38.63,0,0,1,19.59,33.6V307.32a38.63,38.63,0,0,1-19.83,33.74L240.21,427.22a38.63,38.63,0,0,1-37.89-.16L47.24,338.86a38.61,38.61,0,0,1-19.53-33.57Z" transform="translate(-27.71)"/><polygon class="cls-2" points="77.62 154.21 193.51 89.07 307.96 154.21 77.62 154.21"/><path class="cls-2" d="M105.33,164.37H335.67l-.08,12H319.1q-.21,9-.41,18h-6.34q.52,44.9,1.06,89.78h5.28v13.73h17V312H105.33v-13h19V283.07h6.34V195.4h-6.34v-19l-19,.78Z" transform="translate(-27.71)"/><path class="cls-1" d="M167.65,175.33h33l-.25,18h6.27v89.29h-6.27V300H168.7v-16.9h-5.28V195.24l4.23.16Z" transform="translate(-27.71)"/><polygon class="cls-3" points="211.76 193.29 216.85 193.29 216.85 175.33 246.97 175.33 246.97 194.74 251.74 194.74 251.74 284.59 246.72 284.59 246.47 299.97 217.1 299.97 217.04 282.01 211.76 281.83 211.76 193.29"/><rect class="cls-1" x="186.41" y="195.24" width="4.08" height="86.77"/><rect class="cls-1" x="198.03" y="195.24" width="4.08" height="86.77"/><rect class="cls-4" x="261.12" y="197.43" width="4.08" height="86.77"/><rect class="cls-4" x="272.74" y="197.43" width="4.08" height="86.77"/><rect class="cls-1" x="112.24" y="197.47" width="4.08" height="86.77"/><rect class="cls-1" x="123.86" y="197.47" width="4.08" height="86.77"/></svg>