<svg id="Слой_1" data-name="Слой 1" xmlns="http://www.w3.org/2000/svg" viewBox="0 0 15.84 12.3"><defs><style>.cls-1{fill:#0060af;}</style></defs><path class="cls-1" d="M3,3.82" transform="translate(0 -1.13)"/><path class="cls-1" d="M9.9,7.6,8,13.2C13.8,14.64,16.3,9,9.9,7.6ZM8.34,12.18,9.56,8.61C14.14,9.56,12.62,13.14,8.34,12.18Z" transform="translate(0 -1.13)"/><path class="cls-1" d="M10.74,2.36l1.59.53.19.06a14.91,14.91,0,0,0,3.32.45l-2,1.31-3.54-1Z" transform="translate(0 -1.13)"/><path class="cls-1" d="M4.56,1.13C2.79,6.35,2,8.67,1.69,9.67l-.08.24A12.37,12.37,0,0,1,0,13l2.74-.7L6.39,1.71Z" transform="translate(0 -1.13)"/><polygon class="cls-1" points="4.15 6.78 4.66 5.3 8.55 5.3 8.05 6.78 4.15 6.78"/><polygon class="cls-1" points="9.91 0.88 6.26 11.71 8.08 12.09 11.65 1.53 9.91 0.88"/></svg>