<svg id="Слой_1" data-name="Слой 1" xmlns="http://www.w3.org/2000/svg" viewBox="0 0 432 432"><defs><style>.cls-1{fill:#1c304e;}.cls-2{fill:#fff;}.cls-3{fill:none;}</style></defs><rect class="cls-1" width="432" height="432"/><path class="cls-2" d="M278.58,307.13c-1.09,0-2.18,0-3.29,0-29.86-.71-64.41-10.95-97.29-28.84s-60.25-41.33-77.07-66c-17.29-25.37-21.47-49.17-11.76-67s32-27.27,62.65-26.54c29.86.71,64.41,10.95,97.29,28.83s60.25,41.33,77.07,66c17.29,25.37,21.46,49.17,11.76,67C328.58,297.75,307.57,307.13,278.58,307.13ZM148.51,125.65c-26.29,0-45.12,8.08-53.19,22.93C86.93,164,91,185.22,106.71,208.3c16.21,23.78,42.71,46.44,74.63,63.8s65.35,27.31,94.12,28c27.91.67,47.94-7.46,56.33-22.89h0c8.39-15.43,4.34-36.64-11.39-59.73-16.21-23.77-42.71-46.43-74.64-63.8s-65.34-27.3-94.11-28Z"/><path class="cls-2" d="M153.39,305.65c-.75,0-1.49,0-2.23,0-30.7-.47-52.56-10.77-61.56-29s-3.89-41.84,14.38-66.5c17.78-24,46.05-46.35,79.61-62.93s68.47-25.45,98.34-25c30.7.47,52.56,10.77,61.56,29s3.89,41.84-14.38,66.5c-17.78,24-46.05,46.35-79.61,62.93C216.78,296.81,182.75,305.65,153.39,305.65Zm-57.51-32.1c7.78,15.74,27.45,24.65,55.38,25.09,28.81.44,62.56-8.18,95.14-24.27s60-37.7,77.09-60.82c16.63-22.45,21.5-43.49,13.72-59.24s-27.45-24.65-55.38-25.08c-28.78-.45-62.56,8.17-95.14,24.27s-60,37.69-77.09,60.81C93,236.77,88.1,257.8,95.88,273.55Z"/><path class="cls-2" d="M216,355.5c-20,0-38.87-14.6-53.26-41.21-14.21-26.27-22.47-61.35-23.27-98.77s6-72.82,19-99.67c13.43-27.61,32-43,52.33-43.48s39.55,14.2,54.15,41.2c14.2,26.27,22.47,61.35,23.27,98.77s-6,72.82-19,99.67c-13.44,27.61-32,43.05-52.34,43.48l-.07-3.5.07,3.5Zm-4.3-276.14H211c-17.56.37-34,14.42-46.19,39.54-12.59,25.87-19.1,60.13-18.33,96.46s8.75,70.28,22.43,95.59C182,335.2,198.69,348.5,216,348.5h.72c17.56-.37,34-14.42,46.19-39.54,12.6-25.87,19.11-60.13,18.33-96.46s-8.74-70.28-22.43-95.59C245.69,92.66,229,79.36,211.68,79.36Z"/><circle class="cls-1" cx="145.62" cy="255.99" r="33.85"/><path class="cls-2" d="M145.62,291.84A35.85,35.85,0,1,1,181.47,256,35.89,35.89,0,0,1,145.62,291.84Zm0-67.69A31.85,31.85,0,1,0,177.47,256,31.87,31.87,0,0,0,145.62,224.15Z"/><circle class="cls-3" cx="285.07" cy="255.99" r="33.85"/><circle class="cls-1" cx="285.07" cy="255.99" r="33.85"/><path class="cls-2" d="M285.07,291.84A35.85,35.85,0,1,1,320.91,256,35.89,35.89,0,0,1,285.07,291.84Zm0-67.69A31.85,31.85,0,1,0,316.91,256,31.88,31.88,0,0,0,285.07,224.15Z"/><circle class="cls-1" cx="211.96" cy="134.15" r="33.85"/><path class="cls-2" d="M212,170a35.85,35.85,0,1,1,35.85-35.84A35.89,35.89,0,0,1,212,170Zm0-67.69a31.85,31.85,0,1,0,31.85,31.85A31.89,31.89,0,0,0,212,102.3Z"/><path class="cls-2" d="M196.11,164.05c22.06-12.06,34.8-34,33.48-58.8-50.06,19.85-42,45.14-42,45.14Z"/><path class="cls-2" d="M145.62,245.39s-32.49,9.52,0,14.8,33.85-4.2,33.85-4.2c11.34,8.51-43.92,75.37-67.69,0,0,0-1.36-29.78,33.84-33.84C180.82,226.21,145.62,245.39,145.62,245.39Z"/><path class="cls-2" d="M271.53,270.89h43.93c6.68.2,10.73-69.41-53.59-39.53C252.58,265.47,271.53,270.89,271.53,270.89Z"/><path class="cls-2" d="M213.31,259.35A45.33,45.33,0,1,1,258.64,214,45.37,45.37,0,0,1,213.31,259.35Zm0-86.65A41.33,41.33,0,1,0,254.64,214,41.37,41.37,0,0,0,213.31,172.7Z"/><path class="cls-2" d="M194.29,223.91s-4-46.44,38-38.32c23,17.6,16.24,35.2,16.24,35.2L235,211l-12.19,19.3,1.36,14.89-13.77,2.24-3.83-21.19Z"/><path class="cls-2" d="M174.27,222.15l17.85,1.76,10.36,6.36-1.35,10.83-5.87,6.3c-12.3-.1-18.58-9.4-21.72-23.49Z"/><path class="cls-2" d="M237.68,195.07"/></svg>