<svg id="Слой_1" data-name="Слой 1" xmlns="http://www.w3.org/2000/svg" viewBox="0 0 432.63 323.62"><defs><style>.cls-1,.cls-2{fill:#0060af;}.cls-2{font-size:59px;font-family:Georgia-Bold, Georgia;font-weight:700;}</style></defs><path class="cls-1" d="M122,81" transform="translate(0 -29.39)"/><text class="cls-2" transform="translate(0.84 305.73)">НОВЫЙ БЫТ</text><path class="cls-1" d="M121.61,80.92" transform="translate(0 -29.39)"/><path class="cls-1" d="M253.49,153.44,216.61,261C328.36,288.61,376.31,180.81,253.49,153.44ZM223.6,241.3l23.48-68.42C335,191,305.74,259.79,223.6,241.3Z" transform="translate(0 -29.39)"/><path class="cls-1" d="M269.61,52.92,300.29,63l3.57,1.17c9.33,3,27.35,6.35,63.75,8.75l-39,25-68-18.7Z" transform="translate(0 -29.39)"/><path class="cls-1" d="M151.14,29.39c-34,100.06-48.86,144.53-55.14,163.75-.29.91-.8,2.45-1.56,4.64a238.57,238.57,0,0,1-30.83,60.14l52.53-13.5,70-204Z" transform="translate(0 -29.39)"/><polygon class="cls-1" points="143.27 130.11 153.04 101.62 227.62 101.62 218.03 130.11 143.27 130.11"/><polygon class="cls-1" points="253.71 16.86 183.71 224.76 218.71 231.89 287.18 29.4 253.71 16.86"/></svg>