<svg id="Слой_1" data-name="Слой 1" xmlns="http://www.w3.org/2000/svg" viewBox="0 0 399.95 350.42"><defs><style>.cls-1{fill:#7da5bc;}.cls-2{fill:#fff;}</style></defs><path class="cls-1" d="M33.69,198c-.38-18.86-.79-39.21,10.81-59,6.13-10.48,12.59-15.61,51.36-44.15,28.36-20.88,42.54-31.32,43.7-32,47.05-27.11,96.35-24.9,113.07-23.42,26.06,2.29,75.84,6.67,92.36,38.29,5.9,11.29,8,26.92,10.81,47.75,3.27,24.28.5,26.38,3.15,37.4,8.06,33.44,38.13,32.92,51.62,61.31,17.09,36-7.68,86.46-32.69,113.48-19.55,21.12-41.11,29.92-57.22,36.5-17,6.93-55.11,19.69-101.81,13.06-49.51-7-48-27.23-91-31.08-53.1-4.77-79.32,24-99.11,6.75-14.16-12.31-15.09-39.49-8.56-57.21,5.68-15.42,13.38-13.88,19.82-28.38C50.47,253.65,34.52,239.51,33.69,198Z" transform="translate(-16.27 -38.62)"/><path d="M90.42,283.55c-23.49,0-42.6-21.66-42.6-48.3S66.93,187,90.42,187,133,208.61,133,235.25,113.91,283.55,90.42,283.55Zm0-87.58c-19.1,0-34.64,17.62-34.64,39.28s15.54,39.28,34.64,39.28,34.64-17.62,34.64-39.28S109.52,196,90.42,196Z" transform="translate(-16.27 -38.62)"/><path d="M214.23,283.55c-23.49,0-42.6-21.66-42.6-48.3s19.11-48.3,42.6-48.3,42.6,21.66,42.6,48.3S237.71,283.55,214.23,283.55Zm0-87.58c-19.1,0-34.64,17.62-34.64,39.28s15.54,39.28,34.64,39.28,34.64-17.62,34.64-39.28S233.33,196,214.23,196Z" transform="translate(-16.27 -38.62)"/><path d="M346,283.55c-23.49,0-42.6-21.66-42.6-48.3S322.51,187,346,187s42.59,21.66,42.59,48.3S369.48,283.55,346,283.55ZM346,196c-19.11,0-34.64,17.62-34.64,39.28s15.53,39.28,34.64,39.28,34.64-17.62,34.64-39.28S365.1,196,346,196Z" transform="translate(-16.27 -38.62)"/><ellipse class="cls-2" cx="67.71" cy="203.93" rx="38.62" ry="43.79"/><path d="M84,290.85c-23.49,0-42.6-21.66-42.6-48.3s19.11-48.3,42.6-48.3,42.6,21.66,42.6,48.3S107.47,290.85,84,290.85Zm0-87.58c-19.1,0-34.64,17.62-34.64,39.28S64.88,281.83,84,281.83s34.64-17.62,34.64-39.28S103.08,203.27,84,203.27Z" transform="translate(-16.27 -38.62)"/><ellipse class="cls-2" cx="191.52" cy="203.93" rx="38.62" ry="43.79"/><path d="M207.79,290.85c-23.49,0-42.59-21.66-42.59-48.3s19.1-48.3,42.59-48.3,42.6,21.66,42.6,48.3S231.27,290.85,207.79,290.85Zm0-87.58c-19.1,0-34.64,17.62-34.64,39.28s15.54,39.28,34.64,39.28,34.64-17.62,34.64-39.28S226.89,203.27,207.79,203.27Z" transform="translate(-16.27 -38.62)"/><ellipse class="cls-2" cx="323.29" cy="203.93" rx="38.62" ry="43.79"/><path d="M339.56,290.85c-23.49,0-42.6-21.66-42.6-48.3s19.11-48.3,42.6-48.3,42.59,21.66,42.59,48.3S363,290.85,339.56,290.85Zm0-87.58c-19.11,0-34.64,17.62-34.64,39.28s15.53,39.28,34.64,39.28,34.64-17.62,34.64-39.28S358.66,203.27,339.56,203.27Z" transform="translate(-16.27 -38.62)"/><path d="M139.86,149.11V111.58h4.66v37.53Zm4.1-11.63v-5h5.64a7.43,7.43,0,0,0,5.78-2.15q2-2.16,2-6.31a7.28,7.28,0,0,0-2-5.52,8,8,0,0,0-5.78-1.88h-5.55v-5h5.55q6.22,0,9.43,3.15t3.2,9.27q0,6.65-3.2,10.06t-9.43,3.42Z" transform="translate(-16.27 -38.62)"/><path d="M167.83,149.11V111.58h4.66v37.53Zm0-32.51v-5h21.9v5Zm0,16.23v-5h17.71v5Zm0,16.28v-5h21.9v5Z" transform="translate(-16.27 -38.62)"/><path d="M201.78,130l-3.82-.27a4.09,4.09,0,0,1-2.6-1.08,3.49,3.49,0,0,1-1-2.64v-7.83a1.88,1.88,0,0,0-.35-1.29,1,1,0,0,0-.79-.4h-.54v-5h2.1a3.71,3.71,0,0,1,3,1.23,6.16,6.16,0,0,1,1,4v8.77a9.5,9.5,0,0,0,.08,1.48.93.93,0,0,0,.45.73,3,3,0,0,0,1.29.2Zm-9.09,19.26v-5h.54a1,1,0,0,0,.79-.39,1.93,1.93,0,0,0,.35-1.3v-7.82a3.52,3.52,0,0,1,1-2.67A4,4,0,0,1,198,131l3.82-.26-1.11,2.14a2.87,2.87,0,0,0-1.29.2.91.91,0,0,0-.45.71,9.48,9.48,0,0,0-.08,1.49V144a6.16,6.16,0,0,1-1,4,3.69,3.69,0,0,1-3,1.24Zm5.88-16.38v-5h5.5v5Zm5.5,16.25V111.58h4v37.53Zm4-16.25v-5h5.27v5Zm2.28-2.88,1.12-2.14a3.1,3.1,0,0,0,1.3-.2.91.91,0,0,0,.45-.73,11.27,11.27,0,0,0,.07-1.48v-8.77a6.16,6.16,0,0,1,1-4,3.73,3.73,0,0,1,3-1.23h2.09v5h-.53a1,1,0,0,0-.79.4,1.88,1.88,0,0,0-.35,1.29V126a3.49,3.49,0,0,1-1,2.64,4.09,4.09,0,0,1-2.6,1.08Zm7,19.26a3.7,3.7,0,0,1-3-1.24,6.15,6.15,0,0,1-1-4v-8.78a11.24,11.24,0,0,0-.07-1.49.89.89,0,0,0-.45-.71,3,3,0,0,0-1.3-.2l-1.12-2.14,3.83.26a4,4,0,0,1,2.6,1.06,3.52,3.52,0,0,1,1,2.67v7.82a1.93,1.93,0,0,0,.35,1.3,1,1,0,0,0,.79.39h.53v5Z" transform="translate(-16.27 -38.62)"/><path d="M223.48,149.11V111.58H228v37.53Zm2.57,0v-9.25h2.37l11.19-28.28H241v9.25h-1.4l-11.19,28.28Zm14,0V111.58h4.47v37.53Z" transform="translate(-16.27 -38.62)"/><path d="M251,149.11V111.58h4.48v37.53Zm8.86-15.33-3.77-15.54h-1.36v-6.66H258l3.78,16.12H262l.46,6.08Zm1.35,0,.7-6.08h.28L266,111.58h3.31v6.66h-1.35l-3.78,15.54Zm7.32,15.33V111.58H273v37.53Z" transform="translate(-16.27 -38.62)"/><path d="M279,149.11V111.58h4.66v37.53Zm4.34,0v-5h1.91a3.2,3.2,0,0,0,2.84-1.94,12.93,12.93,0,0,0,0-10.3,3.21,3.21,0,0,0-2.84-1.93h-2.38v-5h3.73a5.15,5.15,0,0,1,3.68,1.51,10,10,0,0,1,2.44,4.23,23.76,23.76,0,0,1,0,12.74,10.17,10.17,0,0,1-2.44,4.23,5.14,5.14,0,0,1-3.68,1.5Zm13.24,0V111.58H301v37.53Z" transform="translate(-16.27 -38.62)"/><path d="M51.5,307V295.17h1.12V307Zm.29-5.22v-1.29h5.68v1.29ZM56.6,307V295.17h1.12V307Z" transform="translate(-16.27 -38.62)"/><path d="M59.9,307V295.17H61V307Zm0-10.49v-1.29h6.36v1.29Zm0,5.24v-1.3H65v1.3Zm0,5.25v-1.29h6.36V307Z" transform="translate(-16.27 -38.62)"/><path d="M68,307V295.17h1.13V307Zm.29-10.49v-1.29H74v1.29ZM73.12,307V295.17h1.13V307Z" transform="translate(-16.27 -38.62)"/><path d="M79.4,307.12q-3.56,0-3.56-6,0-6.13,3.56-6.14c2.36,0,3.55,2.05,3.55,6.14S81.76,307.12,79.4,307.12Zm0-1.24q2.37,0,2.37-4.74t-2.37-4.87q-2.39,0-2.38,4.87T79.4,305.88Z" transform="translate(-16.27 -38.62)"/><path d="M83.84,307v-1.31a1.21,1.21,0,0,0,1-.42,2.46,2.46,0,0,0,.38-1.19c0-.52.08-1.13.08-1.84v-7h1v7c0,.75,0,1.42-.07,2a5.13,5.13,0,0,1-.32,1.51,1.93,1.93,0,0,1-.76,1A2.55,2.55,0,0,1,83.84,307Zm2-10.49v-1.29h4.63v1.29ZM89.65,307V295.17h1.12V307Z" transform="translate(-16.27 -38.62)"/><path d="M92.81,307V295.17h1.12V307Zm.29-5.22v-1.29h5.68v1.29ZM97.91,307V295.17H99V307Z" transform="translate(-16.27 -38.62)"/><path d="M100.41,307l3-11.78H105L108,307h-1.18l-2.54-10.62h-.11L101.58,307Zm1.26-3v-1.29h5v1.29Z" transform="translate(-16.27 -38.62)"/><path d="M108.86,307V305.7H109a.82.82,0,0,0,.58-.23,1.82,1.82,0,0,0,.37-.91l.25-1.13a2.7,2.7,0,0,1,.38-1,1.14,1.14,0,0,1,.54-.45,2,2,0,0,1,.66-.11h1l0,.52a2.23,2.23,0,0,0-.84.13.88.88,0,0,0-.43.4,3.2,3.2,0,0,0-.22.68l-.35,1.67a2.63,2.63,0,0,1-.56,1.26,1.6,1.6,0,0,1-1.26.44Zm3.28-5.25-.64,0a3,3,0,0,1-.79-.17,2.13,2.13,0,0,1-.77-.46,2.23,2.23,0,0,1-.58-.9,4.22,4.22,0,0,1-.22-1.49,3.74,3.74,0,0,1,.84-2.61,3.05,3.05,0,0,1,2.35-.91h2.35l-.17,1.29h-2.18a1.93,1.93,0,0,0-1.48.59,3,3,0,0,0,0,3.45,1.91,1.91,0,0,0,1.48.62h2.21v.62Zm-.28.67,0-1.29h2.86v1.29Zm2.58,4.54V295.17h1.13V307Z" transform="translate(-16.27 -38.62)"/><path d="M54.33,327.52A4.31,4.31,0,0,1,51,326.1l.8-1a6.7,6.7,0,0,0,.84.64,3.11,3.11,0,0,0,.79.36,3.93,3.93,0,0,0,1,.11,2.26,2.26,0,0,0,1.68-.62,2.32,2.32,0,0,0,.6-1.7,1.92,1.92,0,0,0-.68-1.57,2.78,2.78,0,0,0-1.8-.55h-1l-.12-1.3a5.3,5.3,0,0,0,2.52-.54,1.61,1.61,0,0,0,.75-1.46,1.7,1.7,0,0,0-.57-1.34,2.79,2.79,0,0,0-1.84-.5,4.41,4.41,0,0,0-.6.05c-.22,0-.43.08-.65.14s-.43.1-.62.16l-.15-1.26a3.71,3.71,0,0,1,.53-.17c.22,0,.46-.09.72-.13a5.29,5.29,0,0,1,.8-.06,4,4,0,0,1,2.69.77,2.71,2.71,0,0,1,.85,2.11,2.64,2.64,0,0,1-.56,1.73A3.49,3.49,0,0,1,55,321l.12-.47v1l-.12-.45a3,3,0,0,1,1.38.36,2.68,2.68,0,0,1,1,1,3.15,3.15,0,0,1,.4,1.63,3.68,3.68,0,0,1-.43,1.82,3,3,0,0,1-1.2,1.2A3.83,3.83,0,0,1,54.33,327.52Z" transform="translate(-16.27 -38.62)"/><path d="M59.11,327.35l3-11.78h1.63l3,11.78H65.47l-2.54-10.62h-.11l-2.54,10.62Zm1.25-3V323h5v1.3Z" transform="translate(-16.27 -38.62)"/><path d="M68.3,327.35V315.57h1.12v11.78Zm0-10.49v-1.29h6.15v1.29Z" transform="translate(-16.27 -38.62)"/><path d="M76.42,327.35V315.57h1.12v11.78Zm1-3.79v-1.3h1.91a2.3,2.3,0,0,0,1.83-.72,3.14,3.14,0,0,0,.62-2.09,2.76,2.76,0,0,0-.62-1.93,2.41,2.41,0,0,0-1.83-.66H77.41v-1.29h1.88a3.53,3.53,0,0,1,2.7,1,4.1,4.1,0,0,1,.93,2.89,4.48,4.48,0,0,1-.93,3.06,3.42,3.42,0,0,1-2.7,1.05Z" transform="translate(-16.27 -38.62)"/><path d="M87.52,325.78l-3.35-10.21h1.24L88,323.71h.23Zm-2.61,1.57v-1.29a4.8,4.8,0,0,0,1.6-.23,2.14,2.14,0,0,0,1-.78,4.84,4.84,0,0,0,.66-1.49l2.07-8H91.5l-2.4,8.69a6.2,6.2,0,0,1-.86,1.84,2.81,2.81,0,0,1-1.31,1A6.07,6.07,0,0,1,84.91,327.35Z" transform="translate(-16.27 -38.62)"/><path d="M95.64,327.52a4.33,4.33,0,0,1-3.36-1.42l.81-1a6.67,6.67,0,0,0,.83.64,3.18,3.18,0,0,0,.8.36,3.87,3.87,0,0,0,1,.11,2.23,2.23,0,0,0,1.67-.62,2.28,2.28,0,0,0,.61-1.7,1.9,1.9,0,0,0-.69-1.57,2.74,2.74,0,0,0-1.8-.55h-1l-.13-1.3a5.24,5.24,0,0,0,2.52-.54,1.6,1.6,0,0,0,.76-1.46,1.7,1.7,0,0,0-.57-1.34,2.81,2.81,0,0,0-1.84-.5,4.28,4.28,0,0,0-.6.05c-.22,0-.44.08-.66.14s-.42.1-.61.16l-.15-1.26a4,4,0,0,1,.52-.17c.22,0,.46-.09.73-.13a5.25,5.25,0,0,1,.79-.06,4,4,0,0,1,2.7.77,2.74,2.74,0,0,1,.85,2.11,2.6,2.6,0,0,1-.57,1.73,3.46,3.46,0,0,1-1.87,1l.12-.47v1l-.12-.45a3,3,0,0,1,1.38.36,2.59,2.59,0,0,1,1,1,3.05,3.05,0,0,1,.4,1.63,3.79,3.79,0,0,1-.42,1.82,3,3,0,0,1-1.2,1.2A3.86,3.86,0,0,1,95.64,327.52Z" transform="translate(-16.27 -38.62)"/><path d="M101.07,327.35V315.57h1.12v11.78Zm.78-5.24v-1.3h2.41v1.3Zm1.91-.73,0-.57a1,1,0,0,0,.86-.33,2.52,2.52,0,0,0,.44-1.07l.48-2a4.85,4.85,0,0,1,.34-1.12,1.26,1.26,0,0,1,.53-.58,1.74,1.74,0,0,1,.84-.18h.4v1.3h-.27a.6.6,0,0,0-.49.2,1.76,1.76,0,0,0-.26.66l-.5,2.05a3,3,0,0,1-.55,1.22,1.38,1.38,0,0,1-1.12.43Zm3.56,6a1.83,1.83,0,0,1-.83-.17,1.28,1.28,0,0,1-.53-.59,4.86,4.86,0,0,1-.35-1.11l-.47-2a2.64,2.64,0,0,0-.44-1.07,1.15,1.15,0,0,0-.91-.33l0-.57h.73a1.47,1.47,0,0,1,1.18.43,2.62,2.62,0,0,1,.57,1.22l.51,2.05a1.77,1.77,0,0,0,.26.65.6.6,0,0,0,.49.2h.27v1.3Z" transform="translate(-16.27 -38.62)"/><path d="M108.67,327.35l3-11.78h1.62l3,11.78H115l-2.54-10.62h-.11l-2.54,10.62Zm1.26-3V323h4.95v1.3Z" transform="translate(-16.27 -38.62)"/><path d="M161,305.66V307h-7.74v-1.29Zm-7.74,3.7v-3.21h1.13v3.21Zm1.57-3.42-1-.21a3.79,3.79,0,0,0,.39-1.07,14.78,14.78,0,0,0,.27-1.56c.08-.58.13-1.16.17-1.75s.06-1.12.06-1.61v-4.57h1.05v4.52c0,.5,0,1.06-.05,1.66s-.09,1.2-.17,1.8a13.76,13.76,0,0,1-.28,1.63A4.16,4.16,0,0,1,154.81,305.94Zm.54-9.48v-1.29h4.25v1.29ZM159,307V295.17h1.12V307Zm.88,2.41v-3.21H161v3.21Z" transform="translate(-16.27 -38.62)"/><path d="M165.38,307.12q-3.56,0-3.56-6,0-6.13,3.56-6.14c2.36,0,3.55,2.05,3.55,6.14S167.74,307.12,165.38,307.12Zm0-1.24q2.37,0,2.37-4.74t-2.37-4.87q-2.38,0-2.38,4.87T165.38,305.88Z" transform="translate(-16.27 -38.62)"/><path d="M170.52,307V295.17h1.13V307Zm.29-10.49v-1.29h5.68v1.29ZM175.63,307V295.17h1.12V307Z" transform="translate(-16.27 -38.62)"/><path d="M181.9,307.12q-3.56,0-3.56-6,0-6.13,3.56-6.14t3.55,6.14Q185.45,307.13,181.9,307.12Zm0-1.24q2.37,0,2.37-4.74t-2.37-4.87q-2.39,0-2.38,4.87T181.9,305.88Z" transform="translate(-16.27 -38.62)"/><path d="M186.34,307v-1.31a1.21,1.21,0,0,0,1-.42,2.36,2.36,0,0,0,.39-1.19c.05-.52.07-1.13.07-1.84v-7h1v7c0,.75,0,1.42-.07,2a5.13,5.13,0,0,1-.32,1.51,1.93,1.93,0,0,1-.76,1A2.53,2.53,0,0,1,186.34,307Zm2-10.49v-1.29H193v1.29ZM192.15,307V295.17h1.12V307Z" transform="translate(-16.27 -38.62)"/><path d="M195.31,307V295.17h1.12V307Zm.29-5.22v-1.29h5.68v1.29Zm4.81,5.22V295.17h1.12V307Z" transform="translate(-16.27 -38.62)"/><path d="M203.62,307V295.17h1.09V307Zm.64,0v-2.43h.59l3.66-9.35h.42v2.43h-.42L204.85,307Zm4.39,0V295.17h1.09V307Z" transform="translate(-16.27 -38.62)"/><path d="M211.42,296.46v-1.29h7.05v1.29Zm3,10.49V295.17h1.13V307Z" transform="translate(-16.27 -38.62)"/><path d="M220.23,307V295.17h1.12V307Zm0-10.49v-1.29h6.36v1.29Zm0,5.24v-1.3h5.12v1.3Zm0,5.25v-1.29h6.36V307Z" transform="translate(-16.27 -38.62)"/><path d="M227.64,307v-1.31a1.2,1.2,0,0,0,1-.42,2.36,2.36,0,0,0,.39-1.19c.05-.52.08-1.13.08-1.84v-7h1.05v7c0,.75,0,1.42-.07,2a5.48,5.48,0,0,1-.32,1.51,2,2,0,0,1-.76,1A2.56,2.56,0,0,1,227.64,307Zm2.05-10.49v-1.29h4.63v1.29ZM233.46,307V295.17h1.12V307Z" transform="translate(-16.27 -38.62)"/><path d="M236.62,307V295.17h1.12V307Zm1,0v-1.29h2.29a1.93,1.93,0,0,0,1.54-.66,3.11,3.11,0,0,0,0-3.56,1.92,1.92,0,0,0-1.54-.65H237.5v-1.3h2.72a2.73,2.73,0,0,1,1.59.46,2.93,2.93,0,0,1,1,1.29,4.93,4.93,0,0,1,.36,2,5,5,0,0,1-.36,2,3,3,0,0,1-1,1.3,2.8,2.8,0,0,1-1.59.45Z" transform="translate(-16.27 -38.62)"/><path d="M244.88,307V295.17H246V307Zm.29-5.22v-1.29h5.68v1.29ZM250,307V295.17h1.12V307Z" transform="translate(-16.27 -38.62)"/><path d="M256.25,307.12q-3.56,0-3.55-6,0-6.13,3.55-6.14t3.55,6.14Q259.8,307.13,256.25,307.12Zm0-1.24c1.58,0,2.38-1.58,2.38-4.74s-.8-4.87-2.38-4.87-2.37,1.62-2.37,4.87S254.67,305.88,256.25,305.88Z" transform="translate(-16.27 -38.62)"/><path d="M261.54,307V295.17h1.12V307Zm0-10.49v-1.29h6.36v1.29Zm0,5.24v-1.3h5.12v1.3Zm0,5.25v-1.29h6.36V307Z" transform="translate(-16.27 -38.62)"/><path d="M170.52,327.35V315.57h1.13v11.78Zm.29-10.49v-1.29h5.68v1.29Zm4.82,10.49V315.57h1.12v11.78Z" transform="translate(-16.27 -38.62)"/><path d="M181.9,327.52q-3.56,0-3.55-6,0-6.14,3.55-6.14t3.55,6.14Q185.45,327.52,181.9,327.52Zm0-1.24q2.37,0,2.37-4.74t-2.37-4.87q-2.39,0-2.38,4.87T181.9,326.28Z" transform="translate(-16.27 -38.62)"/><path d="M186.34,327.34V326a1.2,1.2,0,0,0,1-.42,2.36,2.36,0,0,0,.39-1.19c.05-.52.07-1.13.07-1.84v-7h1.06v7c0,.75,0,1.42-.08,2a5.13,5.13,0,0,1-.32,1.51,1.93,1.93,0,0,1-.76,1A2.53,2.53,0,0,1,186.34,327.34Zm2-10.48v-1.29H193v1.29Zm3.77,10.49V315.57h1.12v11.78Z" transform="translate(-16.27 -38.62)"/><path d="M198.42,327.52q-3.55,0-3.55-6,0-6.14,3.55-6.14t3.55,6.14Q202,327.52,198.42,327.52Zm0-1.24c1.58,0,2.38-1.58,2.38-4.74s-.8-4.87-2.38-4.87-2.38,1.62-2.38,4.87S196.84,326.28,198.42,326.28Z" transform="translate(-16.27 -38.62)"/><path d="M207.68,327.52q-4.5,0-4.5-6.08a7.54,7.54,0,0,1,1.13-4.46,3.71,3.71,0,0,1,3.2-1.58,3.62,3.62,0,0,1,1.73.39,2.35,2.35,0,0,1,1.08,1.1l-.84,1a2.41,2.41,0,0,0-.84-.89,2,2,0,0,0-1.11-.32,2.7,2.7,0,0,0-2.3,1.22,6,6,0,0,0-.86,3.47c0,3.26,1.16,4.89,3.5,4.89a4.3,4.3,0,0,0,2-.52l.26,1.22A5.55,5.55,0,0,1,207.68,327.52Z" transform="translate(-16.27 -38.62)"/><path d="M211.83,327.35V315.57H213v11.78Zm.79-5.24v-1.3H215v1.3Zm1.9-.73,0-.57a1.06,1.06,0,0,0,.87-.33,2.53,2.53,0,0,0,.43-1.07l.48-2a5.39,5.39,0,0,1,.34-1.12,1.31,1.31,0,0,1,.53-.58,1.74,1.74,0,0,1,.84-.18h.41v1.3h-.28a.57.57,0,0,0-.48.2,1.59,1.59,0,0,0-.27.66l-.5,2.05a3,3,0,0,1-.55,1.22,1.37,1.37,0,0,1-1.12.43Zm3.56,6a1.86,1.86,0,0,1-.83-.17,1.34,1.34,0,0,1-.53-.59,5.41,5.41,0,0,1-.35-1.11l-.47-2a2.51,2.51,0,0,0-.44-1.07,1.14,1.14,0,0,0-.91-.33l0-.57h.73a1.51,1.51,0,0,1,1.19.43,2.83,2.83,0,0,1,.57,1.22l.5,2.05a1.6,1.6,0,0,0,.27.65.57.57,0,0,0,.48.2h.28v1.3Z" transform="translate(-16.27 -38.62)"/><path d="M219.44,327.35l2.95-11.78H224L227,327.35H225.8l-2.54-10.62h-.11l-2.54,10.62Zm1.25-3V323h5v1.3Z" transform="translate(-16.27 -38.62)"/><path d="M228.35,327.35V315.57h1.13v11.78Zm.29-5.22v-1.29h5.68v1.29Zm4.82,5.22V315.57h1.12v11.78Z" transform="translate(-16.27 -38.62)"/><path d="M236.67,327.35V315.57h1.09v11.78Zm.64,0v-2.43h.59l3.66-9.35H242V318h-.41l-3.66,9.35Zm4.39,0V315.57h1.08v11.78Z" transform="translate(-16.27 -38.62)"/><path d="M245,327.35V315.57h1.13v11.78Zm0-10.49v-1.29h6.37v1.29Zm0,5.24v-1.3h5.13v1.3Zm0,5.25v-1.29h6.37v1.29Z" transform="translate(-16.27 -38.62)"/><path d="M296.22,305.66V307h-7.73v-1.29Zm-7.73,3.7v-3.21h1.12v3.21Zm1.56-3.42-1-.21a3.79,3.79,0,0,0,.39-1.07,14.78,14.78,0,0,0,.27-1.56c.08-.58.13-1.16.17-1.75s.06-1.12.06-1.61v-4.57h1v4.52c0,.5,0,1.06,0,1.66s-.09,1.2-.17,1.8a13.76,13.76,0,0,1-.28,1.63A3.86,3.86,0,0,1,290.05,305.94Zm.54-9.48v-1.29h4.25v1.29ZM294.22,307V295.17h1.12V307Zm.88,2.41v-3.21h1.12v3.21Z" transform="translate(-16.27 -38.62)"/><path d="M300.62,307.12q-3.56,0-3.56-6,0-6.13,3.56-6.14c2.36,0,3.55,2.05,3.55,6.14S303,307.12,300.62,307.12Zm0-1.24q2.37,0,2.37-4.74t-2.37-4.87q-2.39,0-2.38,4.87T300.62,305.88Z" transform="translate(-16.27 -38.62)"/><path d="M305.77,307V295.17h1.12V307Zm.28-10.49v-1.29h5.68v1.29ZM310.87,307V295.17H312V307Z" transform="translate(-16.27 -38.62)"/><path d="M317.14,307.12q-3.56,0-3.55-6,0-6.13,3.55-6.14t3.55,6.14Q320.69,307.13,317.14,307.12Zm0-1.24q2.37,0,2.37-4.74t-2.37-4.87c-1.58,0-2.38,1.62-2.38,4.87S315.56,305.88,317.14,305.88Z" transform="translate(-16.27 -38.62)"/><path d="M321.58,307v-1.31a1.2,1.2,0,0,0,1-.42A2.36,2.36,0,0,0,323,304c.05-.52.07-1.13.07-1.84v-7h1.06v7c0,.75,0,1.42-.07,2a5.48,5.48,0,0,1-.32,1.51,2,2,0,0,1-.77,1A2.53,2.53,0,0,1,321.58,307Zm2-10.49v-1.29h4.64v1.29ZM327.39,307V295.17h1.12V307Z" transform="translate(-16.27 -38.62)"/><path d="M330.55,307V295.17h1.12V307Zm.29-5.22v-1.29h5.68v1.29Zm4.81,5.22V295.17h1.12V307Z" transform="translate(-16.27 -38.62)"/><path d="M338.87,307V295.17H340V307Zm.64,0v-2.43h.58l3.67-9.35h.41v2.43h-.41L340.09,307Zm4.38,0V295.17H345V307Z" transform="translate(-16.27 -38.62)"/><path d="M346.66,296.46v-1.29h7v1.29Zm3,10.49V295.17h1.13V307Z" transform="translate(-16.27 -38.62)"/><path d="M355.47,307V295.17h1.13V307Zm0-10.49v-1.29h6.36v1.29Zm0,5.24v-1.3h5.13v1.3Zm0,5.25v-1.29h6.36V307Z" transform="translate(-16.27 -38.62)"/><path d="M362.89,307v-1.31a1.2,1.2,0,0,0,1-.42,2.36,2.36,0,0,0,.39-1.19c.05-.52.07-1.13.07-1.84v-7h1.06v7c0,.75,0,1.42-.08,2a4.83,4.83,0,0,1-.32,1.51,1.93,1.93,0,0,1-.76,1A2.53,2.53,0,0,1,362.89,307Zm2-10.49v-1.29h4.64v1.29ZM368.7,307V295.17h1.12V307Z" transform="translate(-16.27 -38.62)"/><path d="M371.86,307V295.17H373V307Zm1,0v-1.29h2.28a1.91,1.91,0,0,0,1.54-.66,3.06,3.06,0,0,0,0-3.56,1.91,1.91,0,0,0-1.54-.65h-2.42v-1.3h2.71a2.69,2.69,0,0,1,1.59.46,2.86,2.86,0,0,1,1,1.29,4.93,4.93,0,0,1,.37,2,5,5,0,0,1-.37,2,2.94,2.94,0,0,1-1,1.3,2.75,2.75,0,0,1-1.59.45Z" transform="translate(-16.27 -38.62)"/><path d="M380.12,307V295.17h1.12V307Zm.29-5.22v-1.29h5.68v1.29Zm4.81,5.22V295.17h1.12V307Z" transform="translate(-16.27 -38.62)"/><path d="M388.3,307V295.17h1.12V307Zm1,0v-1.29H390A1.16,1.16,0,0,0,391,305a4.26,4.26,0,0,0,0-3.56,1.15,1.15,0,0,0-1.05-.65h-.8v-1.3h1.07a1.7,1.7,0,0,1,1.2.46,2.91,2.91,0,0,1,.77,1.29,6.1,6.1,0,0,1,.28,2,6.18,6.18,0,0,1-.28,2,3,3,0,0,1-.77,1.3,1.74,1.74,0,0,1-1.2.45Zm4.28,0V295.17h1.08V307Z" transform="translate(-16.27 -38.62)"/><path d="M396.7,307V295.17h1.09V307Zm.64,0v-2.43h.59l3.66-9.35H402v2.43h-.41L397.93,307Zm2.42-13a2.28,2.28,0,0,1-1.71-.63,2.48,2.48,0,0,1-.61-1.78h1.1a1.57,1.57,0,0,0,.32,1.1,1.35,1.35,0,0,0,1.79,0,1.57,1.57,0,0,0,.32-1.1h1.1a2.43,2.43,0,0,1-.61,1.78A2.24,2.24,0,0,1,399.76,293.92Zm2,13V295.17h1.08V307Z" transform="translate(-16.27 -38.62)"/><path d="M329.53,327.52q-3.55,0-3.55-6,0-6.14,3.55-6.14t3.55,6.14Q333.08,327.52,329.53,327.52Zm0-1.24c1.58,0,2.38-1.58,2.38-4.74s-.8-4.87-2.38-4.87-2.37,1.62-2.37,4.87S328,326.28,329.53,326.28Z" transform="translate(-16.27 -38.62)"/><path d="M334.27,316.86v-1.29h7.05v1.29Zm3,10.49V315.57h1.13v11.78Z" transform="translate(-16.27 -38.62)"/><path d="M345,321.4l-1-.08a1.07,1.07,0,0,1-.78-.4,1.77,1.77,0,0,1-.32-1l-.12-2.46a.87.87,0,0,0-.15-.52.44.44,0,0,0-.32-.15h-.16v-1.3h.5a1,1,0,0,1,.89.39,2.09,2.09,0,0,1,.33,1.22l.12,2.68a3.62,3.62,0,0,0,.09.62.46.46,0,0,0,.22.3,1.26,1.26,0,0,0,.5.08Zm-2.89,6V326.1h.16a.44.44,0,0,0,.32-.15.87.87,0,0,0,.15-.52l.12-2.49a1.59,1.59,0,0,1,.32-1,1.08,1.08,0,0,1,.78-.38l1-.08-.24.59a1.11,1.11,0,0,0-.5.08.4.4,0,0,0-.22.29,3.2,3.2,0,0,0-.09.61l-.12,2.69a2.11,2.11,0,0,1-.33,1.23,1,1,0,0,1-.89.38Zm2.17-5.28v-1.3h1.33v1.3Zm1.33,5.24V315.57h1v11.78Zm1-5.24v-1.3h1.28v1.3Zm.61-.71.24-.59a1.26,1.26,0,0,0,.5-.08.46.46,0,0,0,.22-.3,3.62,3.62,0,0,0,.09-.62l.12-2.68a2.09,2.09,0,0,1,.33-1.22,1.06,1.06,0,0,1,.89-.39h.5v1.3h-.16a.42.42,0,0,0-.32.15.94.94,0,0,0-.16.52L349.3,320a1.7,1.7,0,0,1-.32,1,1.07,1.07,0,0,1-.78.4Zm2.39,6a1.05,1.05,0,0,1-.89-.38,2.11,2.11,0,0,1-.33-1.23l-.12-2.69a3.2,3.2,0,0,0-.09-.61.4.4,0,0,0-.22-.29,1.11,1.11,0,0,0-.5-.08l-.24-.59,1,.08a1.08,1.08,0,0,1,.78.38,1.66,1.66,0,0,1,.32,1l.11,2.49a.94.94,0,0,0,.16.52.42.42,0,0,0,.32.15h.16v1.29Z" transform="translate(-16.27 -38.62)"/><path d="M351.26,327.35V315.57h1.09v11.78Zm.64,0v-2.43h.58l3.67-9.35h.41V318h-.41l-3.67,9.35Zm4.38,0V315.57h1.09v11.78Z" transform="translate(-16.27 -38.62)"/><path d="M359.38,327.35V315.57h1.09v11.78Zm2.65-5-1.41-5.11h-.33v-1.63h.83l1.42,5.23h0l.12,1.51Zm.36,0,.17-1.51h.06l1.41-5.23h.87v1.63h-.36l-1.41,5.11Zm2.29,5V315.57h1.09v11.78Z" transform="translate(-16.27 -38.62)"/></svg>