<svg id="Слой_1" data-name="Слой 1" xmlns="http://www.w3.org/2000/svg" viewBox="0 0 399.68 423.24"><defs><style>.cls-1{fill:#7da5bc;}.cls-2{fill:#d3d3d3;}.cls-3{fill:#fff;}.cls-4{fill:#0060af;}</style></defs><path class="cls-1" d="M415,215.56c16,42.46-23.1,110.06-70.48,137.64-29.67,17.28-49.53,11.25-80.38,38.54-20.06,17.74-26.25,33.2-44.05,35.24-18,2.06-26-12-49.55-25.33C118.62,372.22,84,398.88,60.45,374.12c-17.25-18.13-1.4-35.29-8.81-92.49-9.46-73-40.44-85.11-30.83-123.34,3-12,8.74-21.43,83.69-80.38C192.11,9,205.72,5,220.12,4.13,263.88,1.5,314,27.74,326.93,64.69c9.9,28.36-10.11,40.15-1.1,69.38C340.34,181.1,399.4,174,415,215.56Z" transform="translate(-18.98 -3.95)"/><ellipse class="cls-2" cx="230.52" cy="211.05" rx="83.5" ry="105"/><path d="M195.27,117.34,225,342.8l.17-.09c5.47-1.82,11.27.37,16.82-1.45L212,113.45l-.49.08c-5,.76-11.88-.37-15.8,3.49A3,3,0,0,1,195.27,117.34Z" transform="translate(-18.98 -3.95)"/><path d="M243.12,350c-1.73.15-3.49.14-5.22.16-2.87,0-5.73.34-8.6.4a2.54,2.54,0,0,1-1.06-.19h0a2.31,2.31,0,0,1-.82.17,2.67,2.67,0,0,1-1,.2c-.14,0-.26,0-.39,0v.08c-55.93,4.56-106.44-40.69-114.87-104.66-4.29-32.55,2.84-65,20.07-91.5,15.24-23.41,36.78-39.6,61.38-46.41a2.14,2.14,0,0,1,1.66-1.06c5.54-.81,10.92-2.47,16.4-3.43L209.53,95c-.7-5.28-5.05-9-9.67-8.12-33.15,5.63-62.38,25.59-82.31,56.21s-28.17,68.19-23.2,105.84c9.3,70.6,63,121.44,124,121.43A110.68,110.68,0,0,0,237,368.79a8.4,8.4,0,0,0,5.58-3.81,10.69,10.69,0,0,0,1.57-7.17Z" transform="translate(-18.98 -3.95)"/><path d="M243.16,325.49c-55.91,0-101.39-51.66-101.39-115.17S187.25,95.16,243.16,95.16s101.39,51.66,101.39,115.16S299.07,325.49,243.16,325.49Zm0-211c-46.53,0-84.38,43-84.38,95.85s37.85,95.85,84.38,95.85,84.38-43,84.38-95.85S289.69,114.47,243.16,114.47Z" transform="translate(-18.98 -3.95)"/><ellipse class="cls-3" cx="200.1" cy="225.91" rx="92.89" ry="105.51"/><path d="M219.08,345c-55.91,0-101.39-51.66-101.39-115.17s45.48-115.17,101.39-115.17,101.39,51.67,101.39,115.17S275,345,219.08,345Zm0-211c-46.53,0-84.38,43-84.38,95.85s37.85,95.85,84.38,95.85,84.38-43,84.38-95.85S265.61,134,219.08,134Z" transform="translate(-18.98 -3.95)"/><path d="M177.64,68q-8.71,0-8.71-13.58,0-14,8.71-14t8.7,14Q186.34,68,177.64,68Zm0-3.47q5.21,0,5.21-10.11,0-10.5-5.21-10.49t-5.22,10.49Q172.42,64.55,177.64,64.55Z" transform="translate(-18.98 -3.95)"/><path d="M190.26,67.64V40.85h3.32V67.64Zm.7-23.2V40.85h13.52v3.59Zm2.39,23.2V64.06h5.25a3.81,3.81,0,0,0,3.05-1.25,5.25,5.25,0,0,0,1.07-3.52A4.61,4.61,0,0,0,201.65,56a4,4,0,0,0-3.05-1.15h-5.18l-.4-3.58h6a6.73,6.73,0,0,1,5.28,2.08,8.58,8.58,0,0,1,1.87,5.9,9.26,9.26,0,0,1-1.87,6.17,6.6,6.6,0,0,1-5.28,2.18Z" transform="translate(-18.98 -3.95)"/><path d="M217.5,68q-8.7,0-8.7-13.58,0-14,8.7-14t8.7,14Q226.2,68,217.5,68Zm0-3.47q5.22,0,5.22-10.11,0-10.5-5.22-10.49t-5.22,10.49Q212.28,64.55,217.5,64.55Z" transform="translate(-18.98 -3.95)"/><path d="M230.12,67.64V40.85h3.33V67.64Zm2.93-8.3V55.76h4a5.28,5.28,0,0,0,4.12-1.54,6.47,6.47,0,0,0,1.39-4.5,5.2,5.2,0,0,0-1.39-3.94,5.71,5.71,0,0,0-4.12-1.34h-4V40.85h4q4.43,0,6.72,2.25c1.52,1.5,2.28,3.7,2.28,6.62q0,4.74-2.28,7.18t-6.72,2.44Z" transform="translate(-18.98 -3.95)"/><path d="M257.36,68q-8.7,0-8.7-13.58,0-14,8.7-14t8.71,14Q266.07,68,257.36,68Zm0-3.47q5.22,0,5.22-10.11,0-10.5-5.22-10.49t-5.21,10.49Q252.15,64.55,257.36,64.55Z" transform="translate(-18.98 -3.95)"/><path d="M268.66,44.44V40.85h17.27v3.59Zm7,23.2V40.85H279V67.64Z" transform="translate(-18.98 -3.95)"/><path d="M289.39,67.64V40.85h3.32V67.64Zm3.09,0V64.06h1.36a2.26,2.26,0,0,0,2-1.39,7.58,7.58,0,0,0,.77-3.67,7.6,7.6,0,0,0-.77-3.68,2.27,2.27,0,0,0-2-1.37h-1.7V50.36h2.66a3.67,3.67,0,0,1,2.63,1.08,7,7,0,0,1,1.73,3,14.75,14.75,0,0,1,.62,4.54,14.81,14.81,0,0,1-.62,4.55,7.1,7.1,0,0,1-1.73,3,3.66,3.66,0,0,1-2.63,1.07Zm9.43,0V40.85h3.16V67.64Z" transform="translate(-18.98 -3.95)"/><path d="M146.7,94a3.54,3.54,0,0,1-2.73-1A4.08,4.08,0,0,1,143,90h1.36a2.61,2.61,0,0,0,.61,1.85,2.3,2.3,0,0,0,1.75.65,2,2,0,0,0,1.72-.8,3.64,3.64,0,0,0,.61-2.26,3.34,3.34,0,0,0-.61-2.15,2.07,2.07,0,0,0-1.73-.76,3.58,3.58,0,0,0-2.23.81V86.1a3.72,3.72,0,0,1,1.31-.78,4.63,4.63,0,0,1,1.32-.19,2.87,2.87,0,0,1,2.43,1.12,5.21,5.21,0,0,1,.86,3.2,6.15,6.15,0,0,1-.44,2.44,3.31,3.31,0,0,1-1.25,1.54A3.66,3.66,0,0,1,146.7,94Zm-3-6.61.15-7h1.31l-.16,6-.5,1Zm.83-5.54-.14-1.44h5.32v1.44Z" transform="translate(-18.98 -3.95)"/><path d="M156,94q-3.71,0-3.71-6.8,0-7,3.71-7t3.72,7Q159.68,94,156,94Zm0-1.45q2.37,0,2.37-5.35,0-5.53-2.37-5.53t-2.36,5.53Q153.6,92.52,156,92.51Zm0-4.09a.93.93,0,0,1-.75-.35,1.38,1.38,0,0,1-.28-.91,1.39,1.39,0,0,1,.28-.91,1,1,0,0,1,1.51,0,1.39,1.39,0,0,1,.28.91,1.38,1.38,0,0,1-.28.91A.94.94,0,0,1,156,88.42Z" transform="translate(-18.98 -3.95)"/><path d="M165.34,94q-3.72,0-3.72-6.8,0-7,3.72-7t3.72,7Q169.06,94,165.34,94Zm0-1.45c1.58,0,2.36-1.78,2.36-5.35s-.78-5.53-2.36-5.53S163,83.47,163,87.16,163.76,92.51,165.34,92.51Zm0-4.09a1,1,0,0,1-.76-.35,1.38,1.38,0,0,1-.28-.91,1.39,1.39,0,0,1,.28-.91.94.94,0,0,1,.76-.34.92.92,0,0,1,.75.34,1.4,1.4,0,0,1,.29.91,1.38,1.38,0,0,1-.29.91A.93.93,0,0,1,165.34,88.42Z" transform="translate(-18.98 -3.95)"/><path d="M102.21,119.65v-1a8.93,8.93,0,0,1,1.58-5.73,6.32,6.32,0,0,1,4.82-2.15l.13,1.48c-3.43.18-5.14,2.07-5.14,5.69v1.13Zm3.68,4.74a3.3,3.3,0,0,1-2.78-1.17,5.83,5.83,0,0,1-.9-3.57l1-1.75h.55a2.66,2.66,0,0,1,2.73-2.19,2.77,2.77,0,0,1,2.35,1.09,5,5,0,0,1,.83,3.06,5.14,5.14,0,0,1-1,3.35A3.36,3.36,0,0,1,105.89,124.39ZM106,123a2.06,2.06,0,0,0,1.73-.8,3.78,3.78,0,0,0,.6-2.29,3.06,3.06,0,0,0-.58-2,2.06,2.06,0,0,0-1.68-.7,2.28,2.28,0,0,0-1.83.75,3.2,3.2,0,0,0-.64,2.14,3.26,3.26,0,0,0,.63,2.13A2.2,2.2,0,0,0,106,123Z" transform="translate(-18.98 -3.95)"/><path d="M115.2,124.39c-2.48,0-3.71-2.26-3.71-6.79s1.23-7,3.71-7,3.72,2.33,3.72,7S117.68,124.39,115.2,124.39Zm0-1.44c1.58,0,2.37-1.79,2.37-5.35s-.79-5.54-2.37-5.54-2.36,1.85-2.36,5.54S113.63,123,115.2,123Zm0-4.1a.92.92,0,0,1-.75-.34,1.57,1.57,0,0,1,0-1.82,1,1,0,0,1,1.51,0,1.62,1.62,0,0,1,0,1.82A.93.93,0,0,1,115.2,118.85Z" transform="translate(-18.98 -3.95)"/><path d="M124.58,124.39q-3.72,0-3.72-6.79,0-7,3.72-7t3.71,7Q128.29,124.4,124.58,124.39Zm0-1.44c1.57,0,2.36-1.79,2.36-5.35s-.79-5.54-2.36-5.54-2.37,1.85-2.37,5.54S123,123,124.58,123Zm0-4.1a.93.93,0,0,1-.76-.34,1.62,1.62,0,0,1,0-1.82,1,1,0,0,1,1.51,0,1.62,1.62,0,0,1,0,1.82A.92.92,0,0,1,124.58,118.85Z" transform="translate(-18.98 -3.95)"/><path d="M68,160.58V159.1h8l-.9,1.48Zm0,3v-4.22h1.31v4.22Zm2.88,8.89,3.75-13.4H76l-3.75,13.4Z" transform="translate(-18.98 -3.95)"/><path d="M81.18,172.69c-2.47,0-3.71-2.27-3.71-6.79s1.24-7,3.71-7,3.72,2.32,3.72,7S83.66,172.69,81.18,172.69Zm0-1.45q2.37,0,2.37-5.34c0-3.7-.79-5.54-2.37-5.54s-2.36,1.84-2.36,5.54S79.61,171.24,81.18,171.24Zm0-4.09a.92.92,0,0,1-.75-.34,1.39,1.39,0,0,1-.28-.91,1.38,1.38,0,0,1,.28-.91,1,1,0,0,1,1.51,0,1.38,1.38,0,0,1,.28.91,1.39,1.39,0,0,1-.28.91A.93.93,0,0,1,81.18,167.15Z" transform="translate(-18.98 -3.95)"/><path d="M90.56,172.69c-2.48,0-3.72-2.27-3.72-6.79s1.24-7,3.72-7,3.72,2.32,3.72,7S93,172.69,90.56,172.69Zm0-1.45c1.58,0,2.36-1.78,2.36-5.34s-.78-5.54-2.36-5.54-2.37,1.84-2.37,5.54S89,171.24,90.56,171.24Zm0-4.09a.94.94,0,0,1-.76-.34,1.39,1.39,0,0,1-.28-.91,1.38,1.38,0,0,1,.28-.91,1,1,0,0,1,.76-.35.93.93,0,0,1,.75.35,1.38,1.38,0,0,1,.29.91,1.4,1.4,0,0,1-.29.91A.92.92,0,0,1,90.56,167.15Z" transform="translate(-18.98 -3.95)"/><path d="M63.31,230.64a3.63,3.63,0,0,1-2.74-1,3.83,3.83,0,0,1-1-2.8,3.55,3.55,0,0,1,1-2.68,4.44,4.44,0,0,1,5.49,0,3.55,3.55,0,0,1,1,2.68,3.83,3.83,0,0,1-1,2.8A3.64,3.64,0,0,1,63.31,230.64Zm0-7.2a3.5,3.5,0,0,1-2.51-.85,3.15,3.15,0,0,1-.89-2.39,3.3,3.3,0,0,1,.89-2.46,4.07,4.07,0,0,1,5,0,3.3,3.3,0,0,1,.89,2.46,3.15,3.15,0,0,1-.89,2.39A3.48,3.48,0,0,1,63.31,223.44Zm0,5.75a2.36,2.36,0,0,0,1.77-.64,2.5,2.5,0,0,0,.62-1.81,2.83,2.83,0,0,0-.62-1.93,2.6,2.6,0,0,0-3.53,0,2.83,2.83,0,0,0-.62,1.93,2.5,2.5,0,0,0,.62,1.81A2.33,2.33,0,0,0,63.31,229.19Zm0-6.56a1.87,1.87,0,0,0,2.07-2.06,2.42,2.42,0,0,0-.53-1.67,2.29,2.29,0,0,0-3.07,0,2.38,2.38,0,0,0-.54,1.67,1.88,1.88,0,0,0,2.07,2.06ZM62,223.72v-.83h2.61v.83Z" transform="translate(-18.98 -3.95)"/><path d="M72.69,230.64c-2.48,0-3.72-2.27-3.72-6.79s1.24-7,3.72-7,3.72,2.32,3.72,7S75.17,230.64,72.69,230.64Zm0-1.45c1.58,0,2.36-1.78,2.36-5.34s-.78-5.54-2.36-5.54-2.37,1.84-2.37,5.54S71.11,229.19,72.69,229.19Zm0-4.09a.94.94,0,0,1-.76-.34,1.39,1.39,0,0,1-.28-.91,1.38,1.38,0,0,1,.28-.91,1,1,0,0,1,.76-.35.93.93,0,0,1,.75.35,1.38,1.38,0,0,1,.29.91,1.4,1.4,0,0,1-.29.91A.92.92,0,0,1,72.69,225.1Z" transform="translate(-18.98 -3.95)"/><path d="M82.06,230.64c-2.48,0-3.72-2.27-3.72-6.79s1.24-7,3.72-7,3.72,2.32,3.72,7S84.54,230.64,82.06,230.64Zm0-1.45q2.37,0,2.37-5.34c0-3.7-.79-5.54-2.37-5.54s-2.37,1.84-2.37,5.54S80.48,229.19,82.06,229.19Zm0-4.09a.92.92,0,0,1-.75-.34,1.4,1.4,0,0,1-.29-.91,1.38,1.38,0,0,1,.29-.91,1,1,0,0,1,1.5,0,1.38,1.38,0,0,1,.29.91,1.4,1.4,0,0,1-.29.91A.92.92,0,0,1,82.06,225.1Z" transform="translate(-18.98 -3.95)"/><path d="M71.27,280.68a2.8,2.8,0,0,1-2.35-1.08,5,5,0,0,1-.82-3.07,5.13,5.13,0,0,1,1-3.35A3.4,3.4,0,0,1,71.83,272a3.27,3.27,0,0,1,2.78,1.18,5.88,5.88,0,0,1,.91,3.6l-1,1.71H74a2.64,2.64,0,0,1-2.73,2.19Zm-2.16,5L69,284.16q5.13-.26,5.13-5.69v-1.13l1.4-.56v1a8.87,8.87,0,0,1-1.59,5.71A6.33,6.33,0,0,1,69.11,285.64Zm2.58-6.4a2.26,2.26,0,0,0,1.83-.76,3.18,3.18,0,0,0,.64-2.14,3.26,3.26,0,0,0-.63-2.13,2.19,2.19,0,0,0-1.77-.76,2,2,0,0,0-1.72.8,3.66,3.66,0,0,0-.61,2.28,3.07,3.07,0,0,0,.58,2A2.09,2.09,0,0,0,71.69,279.24Z" transform="translate(-18.98 -3.95)"/><path d="M81.19,285.64q-3.72,0-3.72-6.79,0-7,3.72-7c2.48,0,3.71,2.33,3.71,7S83.67,285.64,81.19,285.64Zm0-1.44q2.36,0,2.36-5.35,0-5.53-2.36-5.54t-2.37,5.54Q78.82,284.21,81.19,284.2Zm0-4.09a.94.94,0,0,1-.76-.35,1.62,1.62,0,0,1,0-1.82,1,1,0,0,1,1.51,0,1.57,1.57,0,0,1,0,1.82A.93.93,0,0,1,81.19,280.11Z" transform="translate(-18.98 -3.95)"/><path d="M90.56,285.64q-3.72,0-3.72-6.79,0-7,3.72-7t3.72,7Q94.28,285.65,90.56,285.64Zm0-1.44q2.37,0,2.37-5.35,0-5.53-2.37-5.54t-2.37,5.54Q88.19,284.21,90.56,284.2Zm0-4.09a.93.93,0,0,1-.75-.35,1.57,1.57,0,0,1,0-1.82,1,1,0,0,1,1.5,0,1.57,1.57,0,0,1,0,1.82A.93.93,0,0,1,90.56,280.11Z" transform="translate(-18.98 -3.95)"/><path d="M85.53,333.75v-1.47h3v1.47ZM85.68,323v-1.55l2.74-1.14V322Zm2.74,10.71v-13.4H89.7v13.4Zm1.12,0v-1.47h2.75v1.47Z" transform="translate(-18.98 -3.95)"/><path d="M98.2,333.94c-2.48,0-3.72-2.27-3.72-6.79s1.24-7,3.72-7,3.71,2.32,3.71,7S100.67,333.94,98.2,333.94Zm0-1.45q2.35,0,2.36-5.34c0-3.7-.79-5.54-2.36-5.54s-2.37,1.84-2.37,5.54S96.62,332.49,98.2,332.49Zm0-4.09a.93.93,0,0,1-.76-.34,1.39,1.39,0,0,1-.28-.91,1.36,1.36,0,0,1,.28-.91,1,1,0,0,1,1.51,0,1.36,1.36,0,0,1,.28.91,1.39,1.39,0,0,1-.28.91A.92.92,0,0,1,98.2,328.4Z" transform="translate(-18.98 -3.95)"/><path d="M107.57,333.94c-2.48,0-3.72-2.27-3.72-6.79s1.24-7,3.72-7,3.72,2.32,3.72,7S110.05,333.94,107.57,333.94Zm0-1.45q2.37,0,2.37-5.34c0-3.7-.79-5.54-2.37-5.54s-2.37,1.84-2.37,5.54S106,332.49,107.57,332.49Zm0-4.09a.94.94,0,0,1-.76-.34,1.39,1.39,0,0,1-.28-.91,1.36,1.36,0,0,1,.28-.91,1,1,0,0,1,.76-.35.93.93,0,0,1,.75.35,1.36,1.36,0,0,1,.29.91,1.4,1.4,0,0,1-.29.91A.92.92,0,0,1,107.57,328.4Z" transform="translate(-18.98 -3.95)"/><path d="M116.94,333.94c-2.48,0-3.72-2.27-3.72-6.79s1.24-7,3.72-7,3.72,2.32,3.72,7S119.42,333.94,116.94,333.94Zm0-1.45q2.37,0,2.37-5.34c0-3.7-.79-5.54-2.37-5.54s-2.37,1.84-2.37,5.54S115.36,332.49,116.94,332.49Zm0-4.09a.92.92,0,0,1-.75-.34,1.4,1.4,0,0,1-.29-.91,1.36,1.36,0,0,1,.29-.91,1,1,0,0,1,1.5,0,1.36,1.36,0,0,1,.29.91,1.4,1.4,0,0,1-.29.91A.92.92,0,0,1,116.94,328.4Z" transform="translate(-18.98 -3.95)"/><path d="M131.88,372.38v-1.47h3v1.47Zm.15-10.7v-1.56l2.74-1.13v1.59Zm2.74,10.7V359h1.28v13.39Zm1.12,0v-1.47h2.75v1.47Z" transform="translate(-18.98 -3.95)"/><path d="M141.25,372.38v-1.47h3.05v1.47Zm.16-10.7v-1.56l2.73-1.13v1.59Zm2.73,10.7V359h1.28v13.39Zm1.13,0v-1.47H148v1.47Z" transform="translate(-18.98 -3.95)"/><path d="M153.92,372.57q-3.72,0-3.72-6.79,0-7,3.72-7t3.72,7Q157.64,372.58,153.92,372.57Zm0-1.44q2.37,0,2.37-5.35,0-5.53-2.37-5.54t-2.37,5.54Q151.55,371.14,153.92,371.13Zm0-4.09a.93.93,0,0,1-.75-.35,1.57,1.57,0,0,1,0-1.82,1,1,0,0,1,1.5,0,1.57,1.57,0,0,1,0,1.82A.93.93,0,0,1,153.92,367Z" transform="translate(-18.98 -3.95)"/><path d="M163.29,372.57q-3.72,0-3.72-6.79,0-7,3.72-7t3.72,7Q167,372.58,163.29,372.57Zm0-1.44q2.37,0,2.37-5.35,0-5.53-2.37-5.54c-1.58,0-2.36,1.85-2.36,5.54S161.71,371.13,163.29,371.13Zm0-4.09a.93.93,0,0,1-.75-.35,1.57,1.57,0,0,1,0-1.82.92.92,0,0,1,.75-.34.94.94,0,0,1,.76.34,1.62,1.62,0,0,1,0,1.82A1,1,0,0,1,163.29,367Z" transform="translate(-18.98 -3.95)"/><path d="M208.41,391.71v-1.47h3v1.47Zm.15-10.7v-1.56l2.74-1.13v1.59Zm2.74,10.7V378.32h1.28v13.39Zm1.12,0v-1.47h2.75v1.47Z" transform="translate(-18.98 -3.95)"/><path d="M217.64,391.71v-1.82a14.32,14.32,0,0,0,4-3.7,7,7,0,0,0,1.32-4,3.06,3.06,0,0,0-.54-1.95,1.94,1.94,0,0,0-1.59-.67,2.78,2.78,0,0,0-1.4.41,4.16,4.16,0,0,0-1.25,1.13l-.87-1a4.23,4.23,0,0,1,1.5-1.41,4.15,4.15,0,0,1,2.05-.53,3.17,3.17,0,0,1,2.57,1,4.64,4.64,0,0,1,.86,3,7.79,7.79,0,0,1-1.19,4.15,13,13,0,0,1-3.57,3.7v1.67Zm.47,0v-1.44h6.62v1.44Z" transform="translate(-18.98 -3.95)"/><path d="M230.45,391.9q-3.72,0-3.72-6.79,0-7,3.72-7t3.72,7Q234.17,391.91,230.45,391.9Zm0-1.44q2.37,0,2.37-5.35,0-5.53-2.37-5.54t-2.37,5.54Q228.08,390.47,230.45,390.46Zm0-4.1a.92.92,0,0,1-.75-.34,1.57,1.57,0,0,1,0-1.82,1,1,0,0,1,1.5,0,1.57,1.57,0,0,1,0,1.82A.92.92,0,0,1,230.45,386.36Z" transform="translate(-18.98 -3.95)"/><path d="M239.82,391.9c-2.48,0-3.71-2.26-3.71-6.79s1.23-7,3.71-7,3.72,2.33,3.72,7S242.3,391.9,239.82,391.9Zm0-1.44q2.37,0,2.37-5.35,0-5.53-2.37-5.54t-2.36,5.54Q237.46,390.47,239.82,390.46Zm0-4.1a.92.92,0,0,1-.75-.34,1.57,1.57,0,0,1,0-1.82,1,1,0,0,1,1.51,0,1.62,1.62,0,0,1,0,1.82A.93.93,0,0,1,239.82,386.36Z" transform="translate(-18.98 -3.95)"/><polygon class="cls-4" points="164.47 142.45 161 183.16 190.19 166.14 164.47 142.45"/><path class="cls-1" d="M356.67-117" transform="translate(-18.98 -3.95)"/></svg>