<svg id="Слой_1" data-name="Слой 1" xmlns="http://www.w3.org/2000/svg" viewBox="0 0 429.34 425"><defs><style>.cls-1{fill:#f07d00;}.cls-2{fill:#fff;}</style></defs><rect class="cls-1" width="429.34" height="425" rx="140"/><path class="cls-2" d="M215.45,220C177.13,220,146,189.29,146,151.51S177.13,83,215.45,83s69.49,30.74,69.49,68.51S253.77,220,215.45,220Zm0-104.11c-20.16,0-36.57,16-36.57,35.59s16.41,35.6,36.57,35.6,36.57-16,36.57-35.6S235.62,115.92,215.45,115.92Z" transform="translate(-2 -4)"/><path class="cls-2" d="M146.59,225c4-2.84,10-6,16.9-5.37,9.06.85,13,7.71,22,13.15,13.08,7.91,27.25,7,32.2,6.71,21.09-1.33,27.71-14.38,54.2-15.57,3.22-.14,5.85-.07,7.51,0,3.87,2.93,14,10.95,12.93,20.59-1,9.11-12,19.58-48.35,27.71,38.64,41.86,41.86,44,41.86,44s11.81,46.15-32.2,27.91L220.38,310.9s-4.29-11.8-19.32,1.08L175.3,343.1s-35.42,11.81-32.2-32.2l38.64-29s13.95-10.73-5.37-13.95c-8.85-1.48-29.54-7.05-35.05-15.81C138.65,247.91,138,240.2,146.59,225Z" transform="translate(-2 -4)"/></svg>