<svg id="Слой_1" data-name="Слой 1" xmlns="http://www.w3.org/2000/svg" viewBox="0 0 432 432"><defs><style>.cls-1{fill:#fff;}.cls-2{fill:#87aeb5;}.cls-3{fill:#7c9fa4;}</style></defs><rect class="cls-1" width="432" height="432"/><path class="cls-2" d="M84.93,368.16v-191s13.1-3.71,28.21,7,30.17-7.63,30.17-7.63H161.5l137,52.61s24.45,64.46-71.9,81.6c0,0-63.61,1.52-83.76-7.54l.45,65Z"/><path class="cls-2" d="M161.5,56.84V216S228,296.63,360,223.08c0,0,44.33-62.47-37.28-101.76,0,0-77.07-13.6-100.24,1.51l-4-47.35Z"/><path class="cls-1" d="M190.23,216s-3-43.83,63.46-28.72c0,0,44.33,26.2-6.05,50.38C247.64,237.69,204.35,253.81,190.23,216Z"/><path class="cls-1" d="M216.09,155.44v20.73s52.21-8.5,80.42,34.82c10.07,1,41.31-37.28,0-55.55C296.51,155.44,276.72,147.24,216.09,155.44Z"/><path class="cls-3" d="M216.09,197.72h27.29s23.44,8.16,0,16.76l12.83,9.61H239.07L231,216h-4.34v8.06H216.09Z"/><path class="cls-1" d="M226.62,204.48V209h11.49s11.63-2.43,0-4.49Z"/><path class="cls-1" d="M141.85,214.52v52.39s65.18,13.1,87.5,0c0,0,14.26-7.94,11.74-13.55s-47.85,6.49-79.59-38.84Z"/></svg>