<svg id="Слой_1" data-name="Слой 1" xmlns="http://www.w3.org/2000/svg" viewBox="0 0 431.01 409.91"><defs><style>.cls-1{fill:#ffc200;}</style></defs><path class="cls-1" d="M216.57,323.74l-.07,0-.07,0L83.55,420.28l50.76-156.2a.15.15,0,0,0-.05-.14L1.38,167.4H165.63a.13.13,0,0,0,.12-.09L216.5,11.11l50.75,156.2a.13.13,0,0,0,.12.09H431.62L298.74,263.94a.15.15,0,0,0-.05.14l50.76,156.2Z" transform="translate(-1 -10.71)"/><path class="cls-1" d="M216.5,11.52l50.63,155.83a.26.26,0,0,0,.24.18H431.23L298.67,263.84a.24.24,0,0,0-.09.28L349.21,420,216.65,323.64a.3.3,0,0,0-.3,0L83.79,420l50.63-155.84a.24.24,0,0,0-.09-.28L1.77,167.53H165.63a.26.26,0,0,0,.24-.18L216.5,11.52m0-.81L165.63,167.28H1L134.19,264,83.31,420.61,216.5,323.85l133.19,96.76L298.81,264,432,167.28H267.37L216.5,10.71ZM432,167.28h0Z" transform="translate(-1 -10.71)"/></svg>