<svg id="Слой_1" data-name="Слой 1" xmlns="http://www.w3.org/2000/svg" viewBox="0 0 431.01 409.91"><defs><style>.cls-1{fill:#ffc200;}</style></defs><path class="cls-1" d="M216.1,60l36.61,112.67A15,15,0,0,0,267,183H385.43L289.6,252.63a15,15,0,0,0-5.45,16.77l36.6,112.66-95.83-69.63a15,15,0,0,0-17.64,0l-95.84,69.63L148.05,269.4a15,15,0,0,0-5.45-16.77L46.76,183H165.23a15,15,0,0,0,14.26-10.36L216.1,60m0-48.54L165.23,168H.6l133.19,96.77L82.91,421.34,216.1,324.57l133.19,96.77L298.41,264.77,431.6,168H267L216.1,11.43ZM431.6,168Z" transform="translate(-0.6 -11.43)"/></svg>