<svg id="Слой_1" data-name="Слой 1" xmlns="http://www.w3.org/2000/svg" viewBox="0 0 413.37 407.16"><defs><style>.cls-1{fill:#7da5bc;}.cls-2{fill:none;}.cls-3{fill:#d3d3d3;}.cls-4{fill:#fff;}.cls-5{fill:#0060af;}</style></defs><path class="cls-1" d="M415,181c-8.29,30.56-31.48,33.05-32,56-.17,7.6,3.77,16.52,11.65,34.36,8.82,20,14.54,24.86,13.35,34.64-1.21,10-8.07,12.35-20,26-21.42,24.49-16.16,36.18-37,60-8.69,9.93-16,18.28-28,24-22.26,10.6-33.05-1-84-5-34.52-2.71-59.89.24-85-6.35-1.75-.46-10.56-2.54-23.06-6C125,397,116.74,394.88,104,392c-45.94-10.38-56.58-9.39-62-19-11.25-19.95,20-50.13,6.27-67.86-4.46-5.75-8.82-4.47-16.27-9.14C6.74,280.16-1,227.65,15,189c1.1-2.66,1.28-2.94,53-66,29.59-36.08,44.44-54.34,47-65,1.44-6,3.44-17.82,12.8-23.69,4-2.51,7.06-1.68,24.18-6.36,4.14-1.13,9.22-2.4,15.89-3.84a340.92,340.92,0,0,1,40-5.86C231.15,16,363.37.83,376,37c3.26,9.33,3.95,24.75,1,37-3.38,14-9.27,18.19-8,29,1.79,15.25,15.61,25,17,26,13,8.95,21.93,3.5,29,11C425.29,150.91,416.91,174,415,181Z" transform="translate(-6.66 -13.19)"/><path class="cls-2" d="M287.52,225.56c-7.31-56.67-50.86-97.35-100.1-96,47.07,5.52,86.14,44.09,92.91,96.53,7,53.89-22.48,104.87-68.28,124.4a2.22,2.22,0,0,1-.39.57l0,.23c23-5.91,43.12-20.76,57.33-42.45C284.78,284.82,291.35,255.23,287.52,225.56Z" transform="translate(-6.66 -13.19)"/><path d="M302.86,223C294.55,158.64,245.77,112.14,190.14,112a102.4,102.4,0,0,0-17,1.39,7.66,7.66,0,0,0-5.1,3.45,9.71,9.71,0,0,0-1.45,6.53l.77,5.94a100.07,100.07,0,0,1,20.06.34c49.24-1.39,92.79,39.29,100.1,96,3.83,29.67-2.74,59.26-18.5,83.32-14.21,21.69-34.36,36.54-57.33,42.45l0-.23a2.45,2.45,0,0,1-1.86.77,2.74,2.74,0,0,1-.51-.06,2.47,2.47,0,0,1-1.86.77,2.34,2.34,0,0,1-.47-.05,103,103,0,0,1-10.37,3.22l.93,7.17c.62,4.82,4.58,8.18,8.79,7.43,30.22-5,56.91-23.12,75.14-51S307.29,257.33,302.86,223Z" transform="translate(-6.66 -13.19)"/><ellipse class="cls-3" cx="176.84" cy="223.81" rx="77.5" ry="90"/><path d="M206.5,331.68c-45.86,14.28-93.39-16.48-106-68.57S115.05,157,160.91,142.76s93.39,16.48,106,68.56S252.36,317.4,206.5,331.68ZM164.73,158.61c-38.16,11.88-60.7,56.81-50.24,100.16s50,69,88.19,57.06,60.7-56.81,50.24-100.16S202.9,146.72,164.73,158.61Z" transform="translate(-6.66 -13.19)"/><ellipse class="cls-4" cx="161.17" cy="246.21" rx="79" ry="89.73"/><path d="M190.62,353.86c-45.86,14.27-93.39-16.48-106-68.57S99.17,179.21,145,164.93s93.39,16.49,106,68.57S236.47,339.58,190.62,353.86ZM148.85,180.78C110.68,192.66,88.15,237.6,98.61,281s50,68.94,88.18,57.06,60.7-56.82,50.24-100.16S187,168.9,148.85,180.78Z" transform="translate(-6.66 -13.19)"/><path d="M77.94,33.74V29.43H98.72v4.31Zm8.39,27.92V29.43h4V61.66Z" transform="translate(-6.66 -13.19)"/><path d="M103.52,61.66V29.43h4V61.66Zm0-27.92V29.43H122.3v4.31Zm0,13.94V43.36H118.7v4.32Zm0,14V57.35H122.3v4.31Z" transform="translate(-6.66 -13.19)"/><path d="M126.86,61.66V29.43h3.83V61.66Zm7.59-13.17-3.24-13.34h-1.16V29.43h2.84l3.24,13.84h.16l.4,5.22Zm1.16,0,.6-5.22h.24l3.24-13.84h2.83v5.72h-1.15l-3.24,13.34Zm6.27,13.17V29.43h3.84V61.66Z" transform="translate(-6.66 -13.19)"/><path d="M151.08,61.66V29.43h4V61.66Zm.84-27.92V29.43h16.8v4.31Zm13.54,27.92V29.43h4V61.66Z" transform="translate(-6.66 -13.19)"/><path d="M175.46,61.66V29.43h4V61.66Zm0-27.92V29.43h18.78v4.31Zm0,13.94V43.36h15.18v4.32Zm0,14V57.35h18.78v4.31Z" transform="translate(-6.66 -13.19)"/><path d="M199.44,61.66V29.43h4V61.66Zm3.51-10V47.36h4.84a6.36,6.36,0,0,0,5-1.85,7.79,7.79,0,0,0,1.68-5.41,6.3,6.3,0,0,0-1.68-4.75,6.91,6.91,0,0,0-5-1.61H203V29.43h4.76c3.55,0,6.25.9,8.08,2.7s2.75,4.46,2.75,8q0,5.68-2.75,8.63c-1.83,2-4.53,2.94-8.08,2.94Z" transform="translate(-6.66 -13.19)"/><path d="M221.12,61.66l8.19-32.23h5.79l8.2,32.23h-4.2l-6.71-28.33H232l-6.72,28.33Zm3.79-7.86V49.49H239.3V53.8Z" transform="translate(-6.66 -13.19)"/><path d="M245.8,33.74V29.43h20.78v4.31Zm8.39,27.92V29.43h4V61.66Z" transform="translate(-6.66 -13.19)"/><path d="M279.53,57.12,269.9,29.43h4.39l7,20.65H282ZM272,61.66V57.35a15.4,15.4,0,0,0,4.59-.57,6,6,0,0,0,2.9-2A11.84,11.84,0,0,0,281.39,51l5.69-21.56h4.4l-7,24.06A14.8,14.8,0,0,1,282,58.4a7.93,7.93,0,0,1-3.85,2.52A21,21,0,0,1,272,61.66Z" transform="translate(-6.66 -13.19)"/><path d="M295.35,61.66V29.43h4V61.66Zm3.52-10V47.36h4.84a6.36,6.36,0,0,0,5-1.85,7.79,7.79,0,0,0,1.68-5.41,6.3,6.3,0,0,0-1.68-4.75,6.91,6.91,0,0,0-5-1.61H299V29.43h4.76c3.55,0,6.25.9,8.08,2.7s2.75,4.46,2.75,8q0,5.68-2.75,8.63c-1.83,2-4.53,2.94-8.08,2.94Z" transform="translate(-6.66 -13.19)"/><path d="M317,61.66l8.19-32.23H331l8.2,32.23H335L328.3,33.33H328l-6.72,28.33Zm3.79-7.86V49.49h14.39V53.8Z" transform="translate(-6.66 -13.19)"/><path d="M225.83,112.1a10.08,10.08,0,0,1-1.78-.55,8.88,8.88,0,0,1-1.38-.73l.55-1.76c.34.21.73.43,1.17.67a6.7,6.7,0,0,0,1.72.6,3.64,3.64,0,0,0,2.6-.22,2.75,2.75,0,0,0,1.3-2,3,3,0,0,0-.16-1.8,3.28,3.28,0,0,0-1.21-1.4,6.44,6.44,0,0,0-2.17-.88l-.31-.07.07-1.38,2.54.87a4.09,4.09,0,0,1,2.39,1.9,4.68,4.68,0,0,1,.39,3.27,4.37,4.37,0,0,1-1.93,3.06A5,5,0,0,1,225.83,112.1Zm.33-8.11.07-1.38a8.58,8.58,0,0,0,2.6-.21,3.78,3.78,0,0,0,1.72-.91,2.84,2.84,0,0,0,.81-1.5,2.41,2.41,0,0,0-.24-1.81,2.34,2.34,0,0,0-1.53-1,3.61,3.61,0,0,0-1.69.07,5.23,5.23,0,0,0-1.83,1l-.8-1.54a5.19,5.19,0,0,1,2.26-1.24,5.64,5.64,0,0,1,2.58,0A3.46,3.46,0,0,1,233,100a4.21,4.21,0,0,1-1.36,2.43,4.15,4.15,0,0,1-2.49,1l-.23,1.16Z" transform="translate(-6.66 -13.19)"/><path d="M242.15,117.29q-4.16-1.77-1-9.58,3.27-8,7.41-6.25t.88,9.8Q246.29,119.06,242.15,117.29Zm.67-1.66q2.64,1.13,5.14-5,2.59-6.36,0-7.49t-5.23,5.23Q240.19,114.5,242.82,115.63Zm1.92-4.7a1.14,1.14,0,0,1-.68-.76,1.71,1.71,0,0,1,.11-1.18,1.68,1.68,0,0,1,.74-.91,1.1,1.1,0,0,1,1,0,1.12,1.12,0,0,1,.68.76,1.77,1.77,0,0,1-.11,1.18,1.68,1.68,0,0,1-.74.91A1.1,1.1,0,0,1,244.74,110.93Z" transform="translate(-6.66 -13.19)"/><path d="M268.55,129.11l2.06-.51,4.23,4-1.22,1.3Zm0,0,9.45-7.4,1.16,1.1-9.46,7.39Zm2.36,7.39,11.33-12.06,1.13,1.07-11.33,12.07Zm3.55-1.78,1.22-1.3,1.19,1.13-1.21,1.3Z" transform="translate(-6.66 -13.19)"/><path d="M280.51,147.71q-2.77-3.59,3.87-8.71,6.83-5.25,9.6-1.68t-4.06,8.84Q283.27,151.29,280.51,147.71Zm1.41-1.09q1.75,2.28,7-1.76,5.41-4.17,3.66-6.45t-7.18,1.9Q280.15,144.33,281.92,146.62Zm4-3.09a1.11,1.11,0,0,1-.22-1,1.74,1.74,0,0,1,.68-1,1.72,1.72,0,0,1,1.1-.41,1.16,1.16,0,0,1,.9.47,1.1,1.1,0,0,1,.22,1,1.68,1.68,0,0,1-.68,1,1.69,1.69,0,0,1-1.1.42A1.13,1.13,0,0,1,285.92,143.53Z" transform="translate(-6.66 -13.19)"/><path d="M297.26,176.62a4.28,4.28,0,0,1-.13-3.54,5.11,5.11,0,0,1,2.87-2.46l.65,1.52a3.26,3.26,0,0,0-1.82,1.56,2.73,2.73,0,0,0,.09,2.26,2.48,2.48,0,0,0,1.74,1.55,4.67,4.67,0,0,0,2.88-.39,4.14,4.14,0,0,0,2.16-1.69,2.48,2.48,0,0,0,0-2.3,4.29,4.29,0,0,0-2-2.1l1.43-.61a4.3,4.3,0,0,1,1.51,1.11,5.34,5.34,0,0,1,.86,1.37,3.45,3.45,0,0,1-.13,3.25,6.48,6.48,0,0,1-3.25,2.47,7.7,7.7,0,0,1-3,.66,4.12,4.12,0,0,1-2.36-.68A4.41,4.41,0,0,1,297.26,176.62Zm6.11-6.49,8.06-3.13.62,1.47-6.9,2.64-1.4-.08Zm6.74-1.68,1.58-.83,2.53,5.93-1.65.68Z" transform="translate(-6.66 -13.19)"/><path d="M302.91,192.22q-1.31-4.32,6.78-6.64,8.32-2.39,9.63,1.93t-7,6.7Q304.22,196.53,302.91,192.22Zm1.72-.5c.56,1.84,3,2.14,7.21.92q6.6-1.89,5.76-4.63t-7.43-.86C305.92,188.37,304.08,189.89,304.63,191.72Zm4.88-1.39a1.1,1.1,0,0,1,.15-1,1.68,1.68,0,0,1,1-.64,1.75,1.75,0,0,1,1.18,0,1.2,1.2,0,0,1,.54,1.75,1.74,1.74,0,0,1-1,.64,1.69,1.69,0,0,1-1.18,0A1.13,1.13,0,0,1,309.51,190.33Z" transform="translate(-6.66 -13.19)"/><path d="M309.44,225.08a3.87,3.87,0,0,1,1.11-3.46,7.28,7.28,0,0,1,4.32-1.44l2.28,1,.07.67a3.53,3.53,0,0,1,2.12,1,3.3,3.3,0,0,1,.92,2.06,3.23,3.23,0,0,1-1.06,2.94,6.23,6.23,0,0,1-3.7,1.3,6.65,6.65,0,0,1-4.26-.84A4.11,4.11,0,0,1,309.44,225.08Zm1.79-.06a2.51,2.51,0,0,0,1.21,2,4.8,4.8,0,0,0,2.9.5,3.89,3.89,0,0,0,2.42-.9,2.43,2.43,0,0,0,.67-2.08,2.78,2.78,0,0,0-1.16-2.13,4.13,4.13,0,0,0-2.73-.57,4,4,0,0,0-2.57,1A2.55,2.55,0,0,0,311.23,225Zm3.64-4.84,1.27-.1q4.67-.37,7.29,1.33a7.76,7.76,0,0,1,3.25,5.59l-1.82.3q-.94-6.15-7.68-5.61l-1.4.11Z" transform="translate(-6.66 -13.19)"/><path d="M310.32,241.69q0-4.49,8.44-4.36,8.7.12,8.73,4.61t-8.67,4.36Q310.36,246.18,310.32,241.69Zm1.8,0q0,2.85,6.69,2.95c4.6.06,6.89-.85,6.88-2.76s-2.32-2.89-6.92-2.95C314.32,238.89,312.11,239.81,312.12,241.72Zm5.11.07a1,1,0,0,1,.42-.9,1.67,1.67,0,0,1,1.13-.33,1.85,1.85,0,0,1,1.14.36,1.11,1.11,0,0,1,.43.91,1.09,1.09,0,0,1-.42.91,1.79,1.79,0,0,1-1.13.33,1.85,1.85,0,0,1-1.14-.36A1.13,1.13,0,0,1,317.23,241.79Z" transform="translate(-6.66 -13.19)"/><path d="M307.86,273.8l15.59,7.85-.31,1.63-15.59-7.85Zm11.52-1.13,5.18,1.08-.29,1.54-5.18-1.08Zm3.72.77,1.8.38-1.76,9.46-1.6-1.43Z" transform="translate(-6.66 -13.19)"/><path d="M303.56,291q1.26-4.27,9.38-1.7,8.35,2.65,7.09,6.93t-9.61,1.62Q302.29,295.23,303.56,291Zm1.73.55c-.54,1.81,1.32,3.4,5.58,4.75q6.63,2.1,7.43-.62t-5.82-4.82Q306.09,288.78,305.29,291.51Zm4.89,1.55a1.07,1.07,0,0,1,.67-.73,1.77,1.77,0,0,1,1.18,0,1.84,1.84,0,0,1,1,.68,1.11,1.11,0,0,1,.16,1,1.07,1.07,0,0,1-.67.73,1.71,1.71,0,0,1-1.18,0,1.8,1.8,0,0,1-1-.67A1.11,1.11,0,0,1,310.18,293.06Z" transform="translate(-6.66 -13.19)"/><path d="M290.73,321.21a4.2,4.2,0,0,1,2.72-2.2,4.88,4.88,0,0,1,3.61.8,4.63,4.63,0,0,1,2.32,2.72,4.38,4.38,0,0,1-.61,3.45,4.32,4.32,0,0,1-2.65,2.24,4.53,4.53,0,0,1-3.48-.72,5,5,0,0,1-2.46-2.81A4.28,4.28,0,0,1,290.73,321.21Zm1.57.93a2.73,2.73,0,0,0-.36,2.23,3.3,3.3,0,0,0,1.59,1.81,3.63,3.63,0,0,0,2.46.6,2.55,2.55,0,0,0,1.8-1.38,2.67,2.67,0,0,0,.3-2.27,3.74,3.74,0,0,0-1.72-1.88,3.18,3.18,0,0,0-2.33-.52A2.64,2.64,0,0,0,292.3,322.14Zm6.69,2.17.9.54-1.55,2.7-.9-.54Zm-.46,1.53a3.65,3.65,0,0,1,5.54-1.44,4.34,4.34,0,0,1,2.13,2.5,4.06,4.06,0,0,1-.55,3.16,4,4,0,0,1-2.44,2.05,4.24,4.24,0,0,1-3.2-.66A4.17,4.17,0,0,1,298,329,4.08,4.08,0,0,1,298.53,325.84Zm.88.52a2.38,2.38,0,0,0-.33,1.93,2.68,2.68,0,0,0,1.32,1.53,3,3,0,0,0,2.13.52,2.26,2.26,0,0,0,1.55-1.2,2.32,2.32,0,0,0,.28-2,3.13,3.13,0,0,0-1.5-1.63,2.62,2.62,0,0,0-2-.42A2.34,2.34,0,0,0,299.41,326.36Z" transform="translate(-6.66 -13.19)"/><path d="M281.67,334.81q2.71-3.53,9.45,1.77,6.93,5.43,4.22,8.94t-9.63-1.92Q279,338.32,281.67,334.81Zm1.44,1.12q-1.73,2.24,3.58,6.4,5.51,4.31,7.22,2.07t-3.77-6.55Q284.83,333.69,283.11,335.93Zm4.06,3.18a1.08,1.08,0,0,1,.89-.44,1.81,1.81,0,0,1,1.11.44,1.84,1.84,0,0,1,.7,1,1.1,1.1,0,0,1-.21,1,1.08,1.08,0,0,1-.89.44,1.75,1.75,0,0,1-1.11-.44,1.84,1.84,0,0,1-.7-1A1.1,1.1,0,0,1,287.17,339.11Z" transform="translate(-6.66 -13.19)"/><path class="cls-5" d="M203,413.42q-11.26,0-11.26-15.23,0-7.21,2.83-11.18a9.29,9.29,0,0,1,8-4,9.09,9.09,0,0,1,4.32,1,5.87,5.87,0,0,1,2.69,2.75l-2.09,2.5a6.09,6.09,0,0,0-2.1-2.25,5.22,5.22,0,0,0-2.79-.79,6.7,6.7,0,0,0-5.74,3.06q-2.16,3.06-2.16,8.7,0,12.24,8.75,12.25a10.72,10.72,0,0,0,5-1.29l.68,3.06A14.14,14.14,0,0,1,203,413.42Z" transform="translate(-6.66 -13.19)"/><path class="cls-5" d="M214.91,390.36a3.58,3.58,0,1,1,2.9-1A3.91,3.91,0,0,1,214.91,390.36Zm0-1.12a2.18,2.18,0,0,0,1.77-.74,3.78,3.78,0,0,0,0-4.15,2.17,2.17,0,0,0-1.77-.73,2.22,2.22,0,0,0-1.77.73,3.83,3.83,0,0,0,0,4.15A2.22,2.22,0,0,0,214.91,389.24Z" transform="translate(-6.66 -13.19)"/><polygon class="cls-5" points="178.77 175.14 151.86 196.06 180.99 212.09 178.77 175.14"/></svg>