<svg id="Слой_1" data-name="Слой 1" xmlns="http://www.w3.org/2000/svg" viewBox="0 0 429.34 425"><defs><style>.cls-1{fill:#25a8e7;}.cls-2{fill:#fff;}</style></defs><rect class="cls-1" width="429.34" height="425" rx="140"/><path class="cls-2" d="M305.36,125.49,117.48,192.81a11.68,11.68,0,0,0-1.42,21.38l31.78,16.4a11.69,11.69,0,0,1,5.85,7.08l16.42,55.83a11.68,11.68,0,0,0,20.61,3.63l15.19-20.62a11.68,11.68,0,0,1,15.64-2.94l50.06,31.62a11.69,11.69,0,0,0,17.7-7.61l31.45-158.83A11.68,11.68,0,0,0,305.36,125.49ZM182,244.51l1.3,37.46L162,225.12,280.83,156Z" transform="translate(-1 -4)"/></svg>