<svg id="Слой_1" data-name="Слой 1" xmlns="http://www.w3.org/2000/svg" viewBox="0 0 401.78 427.76"><defs><style>.cls-1{fill:#7da5bc;}.cls-2{fill:#d3d3d3;}.cls-3{fill:none;}.cls-4{fill:#fff;}.cls-5{fill:#0060af;}</style></defs><path class="cls-1" d="M32.54,263.66C25.21,238.59,22.36,220.59,19.35,201,13,159.51,15.84,150.7,18.78,145c6-11.7,14.67-15.79,25.65-23.8C74.35,99.34,75.41,81.84,98,56.7S169.94-7,211,3.7c27.88,7.25,22.76,29.59,60.19,44.14,32.94,12.81,54.34,2.28,69.86,20.43,8.84,10.34,5.21,17.64,12.7,38.52C364,135.48,380.32,148,391.4,162.53c36.58,47.95,33.53,140.11-3.59,167.33-19.44,14.26-34.4.57-69.42,19.73-22.44,12.28-25.15,22.74-46.87,39.51-35.84,27.68-74.16,34.48-88.27,37-49.66,8.81-117.36,1.6-126.46-26.16-3.19-9.74,4.11-12.06,4.45-34,.16-10.8-1.46-20-14.09-58.82C36.7,275,36.85,278.38,32.54,263.66Z" transform="translate(-15.51 -1.87)"/><ellipse class="cls-2" cx="166.99" cy="235.13" rx="77.5" ry="90"/><path class="cls-3" d="M288.49,221.39c-7.32-56.67-50.87-97.35-100.11-96,47.07,5.53,86.15,44.1,92.92,96.53,6.9,53.53-22.1,104.18-67.38,124a1.88,1.88,0,0,1-.49.73,2,2,0,0,1-.55.41c22.87-5.94,42.94-20.76,57.1-42.38C285.75,280.65,292.32,251.06,288.49,221.39Z" transform="translate(-15.51 -1.87)"/><path d="M303.82,218.83c-8.31-64.37-57.09-110.86-112.72-111a101.34,101.34,0,0,0-17,1.39,7.58,7.58,0,0,0-5.09,3.45,9.68,9.68,0,0,0-1.45,6.53l.76,5.93a100.82,100.82,0,0,1,20.06.34c49.24-1.38,92.79,39.3,100.11,96,3.83,29.67-2.74,59.26-18.51,83.32-14.16,21.62-34.23,36.44-57.1,42.38a3.22,3.22,0,0,1-1.32.37A2.49,2.49,0,0,1,210,348l-.33,0a158.12,158.12,0,0,1-3.06,1,2.58,2.58,0,0,1-.4,0c-2.82,1-5.68,1.88-8.6,2.62l.92,7.17c.62,4.82,4.58,8.18,8.79,7.43,30.22-5,56.91-23.13,75.14-51S308.25,253.16,303.82,218.83Z" transform="translate(-15.51 -1.87)"/><path d="M207.46,327.51c-45.85,14.27-93.38-16.48-105.95-68.57S116,152.87,161.87,138.59s93.39,16.47,106,68.56S253.32,313.23,207.46,327.51ZM165.69,154.43c-38.16,11.89-60.7,56.82-50.23,100.17s50,68.94,88.18,57.06,60.7-56.82,50.24-100.17S203.86,142.55,165.69,154.43Z" transform="translate(-15.51 -1.87)"/><ellipse class="cls-4" cx="153.27" cy="253.35" rx="79" ry="89.73"/><path d="M191.58,349.68c-45.86,14.28-93.39-16.48-106-68.56S100.13,175,146,160.76s93.38,16.48,106,68.57S237.44,335.4,191.58,349.68ZM149.81,176.61c-38.16,11.88-60.7,56.81-50.24,100.16s50,69,88.19,57.07S248.46,277,238,233.67,188,164.72,149.81,176.61Z" transform="translate(-15.51 -1.87)"/><path d="M131.66,69.11V36.88h4V69.11ZM134,53.26V51h8.32v2.22ZM135.37,52V49.93h4.8a5,5,0,0,0,3.51-1.15,4.23,4.23,0,0,0,1.24-3.28,4,4,0,0,0-1.3-3.2,5.63,5.63,0,0,0-3.73-1.11h-4.44L135,36.88h5.12c2.88,0,5.1.7,6.67,2.12a7.72,7.72,0,0,1,2.36,6,6.22,6.22,0,0,1-2.24,5.14,9.9,9.9,0,0,1-6.35,1.8Zm0,17.12V64.79h6a5.7,5.7,0,0,0,4.09-1.37,5,5,0,0,0,1.46-3.85,5.08,5.08,0,0,0-1.52-3.94,6.14,6.14,0,0,0-4.31-1.39h-5.64L135,52.17h7.12a9.7,9.7,0,0,1,6.67,2.11,7.61,7.61,0,0,1,2.36,6,9,9,0,0,1-2.24,6.54,8.44,8.44,0,0,1-6.35,2.32Z" transform="translate(-15.51 -1.87)"/><path d="M155.64,69.11V36.88h4V69.11Zm3.51-10V54.81H164A6.35,6.35,0,0,0,168.94,53a7.82,7.82,0,0,0,1.68-5.42,6.27,6.27,0,0,0-1.68-4.74A6.89,6.89,0,0,0,164,41.19h-4.76V36.88H164c3.55,0,6.25.9,8.08,2.7s2.75,4.45,2.75,8q0,5.7-2.75,8.64c-1.83,2-4.53,2.94-8.08,2.94Z" transform="translate(-15.51 -1.87)"/><path d="M179.62,69.11V36.88h4V69.11Zm0-27.92V36.88H198.4v4.31Zm0,13.93V50.81H194.8v4.31Zm0,14V64.79H198.4v4.32Z" transform="translate(-15.51 -1.87)"/><path d="M203,69.11V36.88h3.83V69.11Zm7.59-13.17L207.31,42.6h-1.16V36.88H209l3.24,13.84h.16l.4,5.22Zm1.16,0,.6-5.22h.24l3.23-13.84h2.84V42.6h-1.16l-3.23,13.34ZM218,69.11V36.88h3.84V69.11Z" transform="translate(-15.51 -1.87)"/><path d="M225.82,69.22V64.91h.66a2.29,2.29,0,0,0,1.39-.45,3.46,3.46,0,0,0,1-2l.72-2.95a7.62,7.62,0,0,1,1-2.58,3.25,3.25,0,0,1,1.44-1.18,5.13,5.13,0,0,1,1.79-.3h3.82l.1,1.68a8.23,8.23,0,0,0-2.54.3,2.33,2.33,0,0,0-1.28,1,5.48,5.48,0,0,0-.64,1.66l-1,4.63A7,7,0,0,1,230.7,68c-.76.83-2.07,1.24-3.93,1.24Zm9.83-14.37c-.52,0-1.17,0-1.93-.08a10.47,10.47,0,0,1-2.38-.45A6.73,6.73,0,0,1,229,53.06a6.32,6.32,0,0,1-1.75-2.48,10.71,10.71,0,0,1-.66-4.08c0-3.07.83-5.44,2.51-7.12a9.39,9.39,0,0,1,6.92-2.5h6.23l-.48,4.31h-5.75a5.15,5.15,0,0,0-3.81,1.42,5.74,5.74,0,0,0-1.43,4.25,6.25,6.25,0,0,0,1.43,4.33,4.88,4.88,0,0,0,3.81,1.57h5.83v2.09Zm-1.28,2.23-.1-4.32h8v4.32Zm7.23,12V36.88h4V69.11Z" transform="translate(-15.51 -1.87)"/><path d="M223.78,107.05l.36-1.79,3.59.8-.36,1.8Zm2.82-13,.38-1.9,3.5-.66-.39,2Zm.58,13.79,3.3-16.35,1.51.34-3.3,16.35Zm1.33.3.36-1.79,3.24.72-.36,1.8Z" transform="translate(-15.51 -1.87)"/><path d="M243.14,113.16q-4.14-1.77-1-9.58,3.27-8,7.41-6.25t.88,9.8Q247.28,114.93,243.14,113.16Zm.67-1.66q2.64,1.13,5.14-5,2.6-6.36,0-7.49t-5.23,5.24Q241.18,110.36,243.81,111.5Zm1.92-4.7a1.15,1.15,0,0,1-.68-.76,1.77,1.77,0,0,1,.11-1.18,1.72,1.72,0,0,1,.74-.91,1.18,1.18,0,0,1,1.68.72,1.71,1.71,0,0,1-.11,1.18,1.65,1.65,0,0,1-.74.91A1.1,1.1,0,0,1,245.73,106.8Z" transform="translate(-15.51 -1.87)"/><path d="M267.53,128.22l1.54-1.64a17.32,17.32,0,0,0,6.64,0,8.69,8.69,0,0,0,4.54-2.49,3.84,3.84,0,0,0,1.17-2.21,2.35,2.35,0,0,0-.84-1.94,3.31,3.31,0,0,0-1.58-.81,5.27,5.27,0,0,0-2.06,0l.12-1.66a5.12,5.12,0,0,1,2.52,0,4.91,4.91,0,0,1,2.25,1.24,3.84,3.84,0,0,1,1.4,3.07,5.79,5.79,0,0,1-1.8,3.47,9.85,9.85,0,0,1-4.56,2.73,16,16,0,0,1-6.29.34l-1.41,1.51Zm.41.39,1.22-1.3,5.85,5.55-1.22,1.3Z" transform="translate(-15.51 -1.87)"/><path d="M281.5,143.58q-2.78-3.59,3.87-8.7,6.83-5.26,9.6-1.69T290.91,142Q284.27,147.15,281.5,143.58Zm1.41-1.09c1.17,1.52,3.51.93,7-1.76s4.83-4.93,3.66-6.45-3.57-.89-7.18,1.9S281.73,141,282.91,142.49Zm4-3.09a1.13,1.13,0,0,1-.22-1,1.68,1.68,0,0,1,.68-1,1.69,1.69,0,0,1,1.1-.42,1.14,1.14,0,0,1,.9.47,1.11,1.11,0,0,1,.22,1,2,2,0,0,1-1.78,1.37A1.16,1.16,0,0,1,286.91,139.4Z" transform="translate(-15.51 -1.87)"/><path d="M297.88,171.62a9.91,9.91,0,0,1-.59-1.77,8.37,8.37,0,0,1-.22-1.55l1.76-.51c0,.39.08.84.14,1.33a7.12,7.12,0,0,0,.53,1.75,3.76,3.76,0,0,0,1.7,2,3.15,3.15,0,0,0,3.76-1.14,3.11,3.11,0,0,0,.43-1.77,6.39,6.39,0,0,0-.55-2.28l-.13-.29,1.17-.7.78,2.57a4,4,0,0,1-.14,3,5.11,5.11,0,0,1-6.1,2.24A5.24,5.24,0,0,1,297.88,171.62Zm6.83-4.21,1.17-.7a9.25,9.25,0,0,0,1.71,2,4,4,0,0,0,1.75.91,2.82,2.82,0,0,0,1.7-.16,2.27,2.27,0,0,0,1.34-1.2,2.22,2.22,0,0,0-.1-1.79,3.76,3.76,0,0,0-1-1.37,5.77,5.77,0,0,0-1.87-1l.79-1.51a5.38,5.38,0,0,1,2.35,1.18A6.05,6.05,0,0,1,314,166a3.78,3.78,0,0,1,.19,2.92,3.67,3.67,0,0,1-2.15,2,4.33,4.33,0,0,1-2.8.22,4.44,4.44,0,0,1-2.3-1.49l-1.08.44Z" transform="translate(-15.51 -1.87)"/><path d="M303.91,188.09q-1.32-4.32,6.78-6.64,8.31-2.37,9.63,1.94t-7,6.7Q305.23,192.4,303.91,188.09Zm1.72-.49c.55,1.83,3,2.14,7.2.92q6.6-1.89,5.77-4.64t-7.44-.86Q304.79,184.85,305.63,187.6Zm4.87-1.4a1.09,1.09,0,0,1,.15-1,1.69,1.69,0,0,1,1-.65,1.84,1.84,0,0,1,1.19,0,1.16,1.16,0,0,1,.67.76,1.08,1.08,0,0,1-.14,1,1.76,1.76,0,0,1-1,.65,1.84,1.84,0,0,1-1.19,0A1.17,1.17,0,0,1,310.5,186.2Z" transform="translate(-15.51 -1.87)"/><path d="M310.84,222.69l16.61-1.32.15,1.54L311,224.23Zm3.08-7,1.9,1,.58,5.76-1.79.14Zm0,0,12.1.86.16,1.57-12.1-.87Zm.81,8.06,1.79-.15.16,1.63-1.79.14Z" transform="translate(-15.51 -1.87)"/><path d="M311.32,237.56c0-3,2.79-4.44,8.43-4.36q8.7.12,8.73,4.61t-8.67,4.36Q311.35,242.05,311.32,237.56Zm1.79,0q0,2.85,6.69,2.95c4.6.07,6.9-.85,6.88-2.76s-2.32-2.89-6.92-2.95Q313.1,234.72,313.11,237.59Zm5.11.07a1.06,1.06,0,0,1,.42-.9,1.67,1.67,0,0,1,1.13-.33,1.85,1.85,0,0,1,1.14.36,1.11,1.11,0,0,1,.43.92,1.06,1.06,0,0,1-.42.9,1.79,1.79,0,0,1-1.13.33,1.85,1.85,0,0,1-1.14-.36A1.16,1.16,0,0,1,318.22,237.66Z" transform="translate(-15.51 -1.87)"/><path d="M308.39,270.84a4.12,4.12,0,0,1,1.87-3,5.19,5.19,0,0,1,3.78-.4l-.3,1.61a3.31,3.31,0,0,0-2.4.25,2.6,2.6,0,0,0-1.18,1.9,2.44,2.44,0,0,0,.6,2.24,4.8,4.8,0,0,0,2.64,1.3,4.29,4.29,0,0,0,2.76-.17,2.41,2.41,0,0,0,1.31-1.86,4.19,4.19,0,0,0-.5-2.83l1.54.3a4.58,4.58,0,0,1,.66,1.75,5.1,5.1,0,0,1-.05,1.61,3.35,3.35,0,0,1-1.91,2.58,6.62,6.62,0,0,1-4.1.2,8.21,8.21,0,0,1-2.9-1.14,4.24,4.24,0,0,1-1.61-1.88A4.3,4.3,0,0,1,308.39,270.84Zm8.76-1.88,8.52,2-.29,1.55-7.28-1.72-1.13-.84Zm6.6,2.4,1.8.2-1.17,6.27-1.77-.36Z" transform="translate(-15.51 -1.87)"/><path d="M304.55,286.83q1.26-4.27,9.39-1.69,8.34,2.64,7.08,6.92t-9.61,1.63Q303.28,291.09,304.55,286.83Zm1.73.55c-.54,1.81,1.32,3.4,5.59,4.75s6.88,1.2,7.42-.62-1.4-3.42-5.81-4.82S306.81,285.57,306.28,287.38Zm4.89,1.55a1.09,1.09,0,0,1,.67-.73,1.71,1.71,0,0,1,1.18,0,1.77,1.77,0,0,1,1,.67,1.11,1.11,0,0,1,.15,1,1.07,1.07,0,0,1-.67.73,1.77,1.77,0,0,1-1.18,0,1.84,1.84,0,0,1-1-.68A1.11,1.11,0,0,1,311.17,288.93Z" transform="translate(-15.51 -1.87)"/><path d="M291.69,317.15a3.77,3.77,0,0,1,2.92-2.13,7.59,7.59,0,0,1,4.41,1.36l1.32,2.12-.33.57a3.66,3.66,0,0,1,1.18,2,3.51,3.51,0,0,1-3,3.93,6.48,6.48,0,0,1-3.81-1.12,6.74,6.74,0,0,1-3-3.15A4,4,0,0,1,291.69,317.15Zm1.52,1a2.42,2.42,0,0,0-.16,2.3,4.91,4.91,0,0,0,2.11,2.09,4,4,0,0,0,2.52.69,2.37,2.37,0,0,0,1.76-1.29,2.69,2.69,0,0,0,.27-2.38,5.1,5.1,0,0,0-4.62-2.75A2.51,2.51,0,0,0,293.21,318.15Zm5.81-1.77,1.1.66q4.08,2.41,5.26,5.31a7.52,7.52,0,0,1-.54,6.38l-1.68-.82q2.77-5.49-3.1-9l-1.23-.73Z" transform="translate(-15.51 -1.87)"/><path d="M282.67,330.68q2.7-3.53,9.44,1.77,6.93,5.43,4.22,8.94t-9.63-1.91Q280,334.18,282.67,330.68Zm1.43,1.12q-1.73,2.24,3.59,6.4,5.49,4.31,7.21,2.07t-3.77-6.54Q285.82,329.56,284.1,331.8Zm4.06,3.19a1.06,1.06,0,0,1,.89-.45,2.12,2.12,0,0,1,1.81,1.42,1.15,1.15,0,0,1-1.1,1.42A2.1,2.1,0,0,1,288,336,1.08,1.08,0,0,1,288.16,335Z" transform="translate(-15.51 -1.87)"/><path class="cls-5" d="M176.87,392v-12h1.56v12Zm3.65-2.5-1.9-7.29h-.49v-2.24h1.09l1.95,7.45h.06l.12,2.08Zm.5,0,.17-2.08h.11l1.94-7.45h1.09v2.24h-.49L182,389.47Zm3,2.5v-12h1.56v12Z" transform="translate(-15.51 -1.87)"/><path class="cls-5" d="M188.52,392v-12h1.63v12Zm1,0v-2.81h.83l4.48-9.22h.62v2.8h-.76L190.2,392Zm5.36,0v-12h1.62v12Z" transform="translate(-15.51 -1.87)"/><path class="cls-5" d="M199.8,392v-12h1.63v12Zm.5-5.19v-1.66h7.16v1.66Zm5.84,5.19v-12h1.63v12Z" transform="translate(-15.51 -1.87)"/><path class="cls-5" d="M214.11,392l-4.1-12h1.71l3.47,10.47h.27V392Zm-3.91,5.44-.07-1.78,1.25-.19a3.8,3.8,0,0,0,1.67-.71,4.66,4.66,0,0,0,1.27-1.61,13.52,13.52,0,0,0,1-2.79l2.79-10.39h1.71l-3.15,11a18.61,18.61,0,0,1-1.33,3.48,5.72,5.72,0,0,1-1.61,2,4.72,4.72,0,0,1-2.14.84Z" transform="translate(-15.51 -1.87)"/><path class="cls-5" d="M221.62,381.72v-1.78h9.43v1.78ZM225.53,392v-12h1.62v12Z" transform="translate(-15.51 -1.87)"/><path class="cls-5" d="M233.1,392v-12h1.63v12Zm1.5,0v-1.63h1a1.62,1.62,0,0,0,1.38-.62,2.71,2.71,0,0,0,.49-1.74,2.74,2.74,0,0,0-.49-1.75,1.67,1.67,0,0,0-1.38-.61h-1.22V384h1.42a2.82,2.82,0,0,1,2.34,1,5.66,5.66,0,0,1,0,5.9,2.82,2.82,0,0,1-2.34,1Zm5.9,0v-12h1.62v12Z" transform="translate(-15.51 -1.87)"/><polygon class="cls-5" points="176.47 184.49 150.03 205.05 176.94 217.95 176.47 184.49"/></svg>