<svg id="Слой_1" data-name="Слой 1" xmlns="http://www.w3.org/2000/svg" viewBox="0 0 432 432"><defs><style>.cls-1{fill:#fff;}</style></defs><rect width="432" height="432"/><path class="cls-1" d="M125.21,248.21H68.37a1.9,1.9,0,0,1-1.71-2.72L123.5,128a1.89,1.89,0,0,1,3.6.82V246.32A1.89,1.89,0,0,1,125.21,248.21Zm-53.82-3.79h51.92V137.11Z" transform="translate(0 0)"/><path class="cls-1" d="M180.62,248.21H125.21a1.9,1.9,0,0,1-1.9-1.89V128.84a1.9,1.9,0,0,1,3.61-.81l55.42,117.48a1.9,1.9,0,0,1-1.72,2.7Zm-53.52-3.79h50.54L127.1,137.3Z" transform="translate(0 0)"/><path class="cls-1" d="M68.37,246.32H180.62s-2.36,34.63-55.41,38.15S68.37,246.32,68.37,246.32Z" transform="translate(0 0)"/><path class="cls-1" d="M119,286.58c-48.33,0-52.51-39.68-52.55-40.09A1.88,1.88,0,0,1,67,245a1.86,1.86,0,0,1,1.4-.62H180.62a1.9,1.9,0,0,1,1.9,2c0,.36-3.11,36.32-57.19,39.91Q122.06,286.58,119,286.58ZM70.56,248.21c1.54,8.21,10.2,37.32,54.52,34.37C169,279.67,177,255.5,178.44,248.21Z" transform="translate(0 0)"/><path class="cls-1" d="M310.89,248.21H254.05a1.89,1.89,0,0,1-1.61-.89,1.92,1.92,0,0,1-.1-1.83L309.19,128a1.86,1.86,0,0,1,2.13-1,1.88,1.88,0,0,1,1.47,1.84V246.32A1.9,1.9,0,0,1,310.89,248.21Zm-53.82-3.79H309V137.11Z" transform="translate(0 0)"/><path class="cls-1" d="M366.31,248.21H310.89a1.89,1.89,0,0,1-1.89-1.89V128.84a1.9,1.9,0,0,1,3.61-.81L368,245.51a1.89,1.89,0,0,1-1.71,2.7Zm-53.52-3.79h50.53L312.79,137.3Z" transform="translate(0 0)"/><path class="cls-1" d="M254.05,246.32H367.73s-2.39,34.63-56.12,38.15S254.05,246.32,254.05,246.32Z" transform="translate(0 0)"/><path class="cls-1" d="M305.36,286.58c-48.92,0-53.16-39.67-53.2-40.09a1.92,1.92,0,0,1,.49-1.45,1.88,1.88,0,0,1,1.4-.62H367.73a1.9,1.9,0,0,1,1.9,2c0,.36-3.15,36.32-57.89,39.91Q308.42,286.58,305.36,286.58Zm-49.11-38.37c1.56,8.22,10.31,37.33,55.24,34.37,44.43-2.91,52.6-27.08,54.05-34.37Z" transform="translate(0 0)"/><path class="cls-1" d="M142.12,136c-7.25,0-15-1.92-23.12-5.76a5.68,5.68,0,0,1,4.84-10.28c9.87,4.65,18.7,5.83,26.22,3.5,6.32-2,9.92-5.5,13.73-9.25,4.35-4.29,9.29-9.15,17.74-9.93,9.78-.88,15.82,4.37,21.16,9,4.73,4.11,8.82,7.66,15.67,8,6.2.3,9.75-2.26,14.23-5.55,5.08-3.73,11.39-8.36,21.82-7.71,8.84.56,14.77,4.55,20,8.08s9.95,6.7,17.81,7.07a35.33,35.33,0,0,0,16.35-3.3,5.68,5.68,0,0,1,4.64,10.38,46.75,46.75,0,0,1-21.54,4.28c-11-.53-17.71-5-23.61-9-4.81-3.24-8.6-5.8-14.37-6.16-6.29-.42-9.86,2.21-14.37,5.52-5,3.7-11.33,8.3-21.58,7.74-10.75-.58-17.27-6.25-22.51-10.81-4.93-4.28-7.95-6.7-12.66-6.26-4.21.39-6.6,2.57-10.8,6.71s-9.38,9.24-18.36,12A37.91,37.91,0,0,1,142.12,136Z" transform="translate(0 0)"/><path class="cls-1" d="M210.47,312.63l-3.79-166.74H213V134.55l-4.46-9.5h22.7l-5.65,9.48v11.36h3.79q-1.44,83.37-2.87,166.74h39.17l5.38,7.58h15.56s11-3.79,7.18,22.74H140.1s-3-26.15,12.82-20.66l15.87-2.08,3.79-7.58Z" transform="translate(0 0)"/><path class="cls-1" d="M208.58,125.05v-23.6H213V88.62c4.2,1.88-8.33-12,4.21-12.83,15.29-1.06,1.62,19.12,4.59,13.26l-.69,10.84h6.25v25.16h3.88l-11.35,11.18Z" transform="translate(0 0)"/><path class="cls-1" d="M216,416.81C107.17,416.81,18.68,326.73,18.68,216S107.17,15.19,216,15.19,413.21,105.27,413.21,216,324.72,416.81,216,416.81Zm0-390.25c-102.51,0-185.9,85-185.9,189.44S113.44,405.44,216,405.44s185.89-85,185.89-189.44S318.45,26.56,216,26.56Z" transform="translate(0 0)"/><path class="cls-1" d="M216,432C99,432,3.84,335.1,3.84,216S99,0,216,0s212.1,96.9,212.1,216S332.9,432,216,432ZM216,3.79C101.08,3.79,7.63,99,7.63,216S101.08,428.21,216,428.21,424.26,333,424.26,216,330.81,3.79,216,3.79Z" transform="translate(0 0)"/></svg>